<?xml version="1.0" encoding="UTF-8" standalone="no"?>
<!-- Created with Inkscape (http://www.inkscape.org/) -->

<svg
   width="6.9769058mm"
   height="6.8633423mm"
   viewBox="0 0 6.9769058 6.8633423"
   version="1.1"
   id="svg5"
   xml:space="preserve"
   inkscape:version="1.2.2 (732a01da63, 2022-12-09)"
   sodipodi:docname="referencia_venta_Pagina.svg"
   xmlns:inkscape="http://www.inkscape.org/namespaces/inkscape"
   xmlns:sodipodi="http://sodipodi.sourceforge.net/DTD/sodipodi-0.dtd"
   xmlns="http://www.w3.org/2000/svg"
   xmlns:svg="http://www.w3.org/2000/svg"><sodipodi:namedview
     id="namedview7"
     pagecolor="#ffffff"
     bordercolor="#000000"
     borderopacity="0.25"
     inkscape:showpageshadow="2"
     inkscape:pageopacity="0.0"
     inkscape:pagecheckerboard="0"
     inkscape:deskcolor="#d1d1d1"
     inkscape:document-units="mm"
     showgrid="false"
     inkscape:zoom="1.3480463"
     inkscape:cx="161.3446"
     inkscape:cy="638.70209"
     inkscape:window-width="1360"
     inkscape:window-height="715"
     inkscape:window-x="-8"
     inkscape:window-y="-8"
     inkscape:window-maximized="1"
     inkscape:current-layer="layer1" /><defs
     id="defs2" /><g
     inkscape:label="Capa 1"
     inkscape:groupmode="layer"
     id="layer1"
     transform="translate(-99.613543,-143.78566)"><g
       id="g49301"
       style="fill:#82827e;fill-opacity:1"
       transform="matrix(0.3598007,0,0,0.369405,128.21928,84.487155)"
       inkscape:export-filename="Proyecto\Proyecto\resource\pizza.svg"
       inkscape:export-xdpi="96"
       inkscape:export-ydpi="96"><path
         id="rect41031"
         style="opacity:1;fill:#82827e;fill-opacity:1;stroke:none;stroke-width:0.424486;stroke-linecap:round;stroke-linejoin:round;stop-color:#000000;stop-opacity:1"
         d="m -78.487199,163.19366 8.743652,15.91014 8.743653,-15.91014 z m 4.896342,0.43408 a 2.1858647,2.1858644 0 0 1 2.185913,2.18591 2.1858647,2.1858644 0 0 1 -2.185913,2.18591 2.1858647,2.1858644 0 0 1 -2.185913,-2.18591 2.1858647,2.1858644 0 0 1 2.185913,-2.18591 z m 8.743652,0.10387 a 1.2490656,1.2143692 0 0 1 1.24902,1.21439 1.2490656,1.2143692 0 0 1 -1.24902,1.2144 1.2490656,1.2143692 0 0 1 -1.249019,-1.2144 1.2490656,1.2143692 0 0 1 1.249019,-1.21439 z m -3.851444,1.59628 a 1.2490656,1.2143692 0 0 1 1.249019,1.2144 1.2490656,1.2143692 0 0 1 -1.249019,1.21388 1.2490656,1.2143692 0 0 1 -1.249019,-1.21388 1.2490656,1.2143692 0 0 1 1.249019,-1.2144 z m 0.06925,2.84479 a 2.1858647,2.1858644 0 0 1 2.185913,2.18591 2.1858647,2.1858644 0 0 1 -2.185913,2.18592 2.1858647,2.1858644 0 0 1 -2.185913,-2.18592 2.1858647,2.1858644 0 0 1 2.185913,-2.18591 z m -3.850927,1.94303 a 0.65922922,0.62453276 0 0 1 0.658874,0.62477 0.65922922,0.62453276 0 0 1 -0.658874,0.62425 0.65922922,0.62453276 0 0 1 -0.659392,-0.62425 0.65922922,0.62453276 0 0 1 0.659392,-0.62477 z m 2.949174,3.05356 a 1.2490656,1.2143692 0 0 1 1.249019,1.21388 1.2490656,1.2143692 0 0 1 -1.249019,1.2144 1.2490656,1.2143692 0 0 1 -1.24902,-1.2144 1.2490656,1.2143692 0 0 1 1.24902,-1.21388 z" /><rect
         style="font-variation-settings:normal;opacity:1;fill:#82827e;fill-opacity:1;stroke:none;stroke-width:0.282299;stroke-linecap:round;stroke-linejoin:round;stroke-miterlimit:4;stroke-dasharray:none;stroke-dashoffset:0;stroke-opacity:1;stop-color:#000000;stop-opacity:1"
         id="rect45463"
         width="19.391037"
         height="2.2510827"
         x="-79.504402"
         y="160.52434"
         ry="1.1255413" /></g></g></svg>
