<?xml version="1.0" standalone="no"?>
<!DOCTYPE svg PUBLIC "-//W3C//DTD SVG 1.1//EN" "http://www.w3.org/Graphics/SVG/1.1/DTD/svg11.dtd" >
<svg xmlns="http://www.w3.org/2000/svg" xmlns:xlink="http://www.w3.org/1999/xlink" version="1.1">
<metadata>
Created by FontForge 20230101 at Mon Jul 17 16:31:37 2023
 By andyv
</metadata>
<defs>
<font id="font-pizza" horiz-adv-x="1024" >
  <font-face 
    font-family="font-pizza"
    font-weight="400"
    font-stretch="normal"
    units-per-em="1024"
    panose-1="2 0 5 3 0 0 0 0 0 0"
    ascent="819"
    descent="-205"
    bbox="-0.434 -215 2568.89 1024"
    underline-thickness="0"
    underline-position="0"
    unicode-range="U+0020-EAEA"
  />
<missing-glyph 
 />
    <glyph glyph-name=".notdef" 
 />
    <glyph glyph-name="space" unicode=" " horiz-adv-x="512" 
 />
    <glyph glyph-name="categorias" unicode="&#x27f2;" horiz-adv-x="1008" 
d="M0 950.691h474.187v-623.709h-474.187v623.709zM0 261.818h474.187v-325.818h-474.187v325.818zM533.46 -64h474.187v633.018h-474.187v-633.018zM522.684 634.182h474.187v325.818h-474.187v-325.818z" />
    <glyph glyph-name="home" unicode="&#xe900;" 
d="M1024 369.556l-512 397.426l-512 -397.428v162.038l512 397.426l512 -397.428v-162.034zM896 384v-384h-256v256h-256v-256h-256v384l384 288z" />
    <glyph glyph-name="home2" unicode="&#xe901;" 
d="M512 928l-512 -512l96 -96l96 96v-416h256v192h128v-192h256v416l96 -96l96 96zM512 512c-35.346 0 -64 28.654 -64 64s28.654 64 64 64s64 -28.654 64 -64s-28.654 -64 -64 -64z" />
    <glyph glyph-name="home3" unicode="&#xe902;" 
d="M1024 352l-192 192v288h-128v-160l-192 192l-512 -512v-32h128v-320h320v192h128v-192h320v320h128v32z" />
    <glyph glyph-name="office" unicode="&#xe903;" 
d="M0 -64h512v1024h-512v-1024zM320 832h128v-128h-128v128zM320 576h128v-128h-128v128zM320 320h128v-128h-128v128zM64 832h128v-128h-128v128zM64 576h128v-128h-128v128zM64 320h128v-128h-128v128zM576 640h448v-64h-448v64zM576 -64h128v256h192v-256h128v576h-448
v-576z" />
    <glyph glyph-name="newspaper" unicode="&#xe904;" 
d="M896 704v128h-896v-704c0 -35.346 28.654 -64 64 -64h864c53.022 0 96 42.978 96 96v544h-128zM832 128h-768v640h768v-640zM128 640h640v-64h-640v64zM512 512h256v-64h-256v64zM512 384h256v-64h-256v64zM512 256h192v-64h-192v64zM128 512h320v-320h-320v320z" />
    <glyph glyph-name="pencil" unicode="&#xe905;" 
d="M864 960c88.364 0 160 -71.634 160 -160c0 -36.02 -11.91 -69.258 -32 -96l-64 -64l-224 224l64 64c26.742 20.09 59.978 32 96 32zM64 224l-64 -288l288 64l592 592l-224 224zM715.578 596.422l-448 -448l-55.156 55.156l448 448z" />
    <glyph glyph-name="pencil2" unicode="&#xe906;" 
d="M384 320l128 64l448 448l-64 64l-448 -448zM289.3 92.902c-31.632 66.728 -65.666 100.762 -132.396 132.394l99.096 272.792l128 77.912l384 384h-192l-384 -384l-192 -640l640 192l384 384v192l-384 -384l-77.912 -128z" />
    <glyph glyph-name="quill" unicode="&#xe907;" 
d="M0 -64c128 384 463 1024 1024 1024c-263 -211 -384 -704 -576 -704h-192l-192 -320h-64z" />
    <glyph glyph-name="pen" unicode="&#xe908;" 
d="M1018.17 668.11l-286.058 286.058c-9.334 9.334 -21.644 7.234 -27.356 -4.666l-38.354 -79.904l267.198 -267.198l79.904 38.354c11.9 5.712 14 18.022 4.666 27.356zM615.384 824.616l-263.384 -21.95c-17.5 -2.166 -32.08 -5.898 -37.09 -28.752
c-0.006 -0.024 -0.012 -0.042 -0.018 -0.066c-71.422 -343.07 -314.892 -677.848 -314.892 -677.848l57.374 -57.374l271.986 271.99c-5.996 12.53 -9.36 26.564 -9.36 41.384c0 53.02 42.98 96 96 96s96 -42.98 96 -96s-42.98 -96 -96 -96
c-14.82 0 -28.852 3.364 -41.384 9.36l-271.988 -271.986l57.372 -57.374s334.778 243.47 677.848 314.892c0.024 0.006 0.042 0.012 0.066 0.018c22.854 5.01 26.586 19.59 28.752 37.09l21.95 263.384z" />
    <glyph glyph-name="blog" unicode="&#xe909;" 
d="M384 960v-96c73.482 0 144.712 -14.37 211.716 -42.71c64.768 -27.394 122.958 -66.632 172.948 -116.624s89.228 -108.18 116.624 -172.948c28.342 -67.004 42.712 -138.238 42.712 -211.718h96c0 353.46 -286.54 640 -640 640zM384 768v-96
c94.022 0 182.418 -36.614 248.9 -103.098c66.486 -66.484 103.1 -154.878 103.1 -248.902h96c0 247.422 -200.576 448 -448 448zM480 576l-64 -64l-224 -64l-192 -416l25.374 -25.374l232.804 232.804c-1.412 5.286 -2.178 10.84 -2.178 16.57c0 35.346 28.654 64 64 64
s64 -28.654 64 -64s-28.654 -64 -64 -64c-5.732 0 -11.282 0.764 -16.568 2.178l-232.804 -232.804l25.372 -25.374l416 192l64 224l64 64z" />
    <glyph glyph-name="eyedropper" unicode="&#xe90a;" 
d="M986.51 922.51c-49.988 49.986 -131.032 49.986 -181.02 0l-172.118 -172.118l-121.372 121.372l-135.764 -135.764l106.426 -106.426l-472.118 -472.118c-8.048 -8.048 -11.468 -18.958 -10.3 -29.456h-0.244v-160c0 -17.674 14.328 -32 32 -32h160h4
c9.212 0 18.426 3.516 25.456 10.544l472.118 472.118l106.426 -106.426l135.764 135.764l-121.372 121.372l172.118 172.118c49.986 49.988 49.986 131.032 -2.27374e-13 181.02zM173.09 0h-109.09v109.09l469.574 469.572l109.088 -109.088z" />
    <glyph glyph-name="droplet" unicode="&#xe90b;" 
d="M864.626 486.838c-65.754 183.44 -205.11 348.15 -352.626 473.162c-147.516 -125.012 -286.87 -289.722 -352.626 -473.162c-40.664 -113.436 -44.682 -236.562 12.584 -345.4c65.846 -125.14 198.632 -205.438 340.042 -205.438s274.196 80.298 340.04 205.44
c57.27 108.838 53.25 231.962 12.586 345.398zM738.764 201.044c-43.802 -83.252 -132.812 -137.044 -226.764 -137.044c-55.12 0 -108.524 18.536 -152.112 50.652c13.242 -1.724 26.632 -2.652 40.112 -2.652c117.426 0 228.668 67.214 283.402 171.242
c44.878 85.292 40.978 173.848 23.882 244.338c14.558 -28.15 26.906 -56.198 36.848 -83.932c22.606 -63.062 40.024 -156.34 -5.368 -242.604z" />
    <glyph glyph-name="paint-format" unicode="&#xe90c;" 
d="M1024 384v384h-192v64c0 35.2 -28.8 64 -64 64h-704c-35.2 0 -64 -28.8 -64 -64v-192c0 -35.2 28.8 -64 64 -64h704c35.2 0 64 28.8 64 64v64h128v-256h-576v-128h-32c-17.674 0 -32 -14.326 -32 -32v-320c0 -17.674 14.326 -32 32 -32h128c17.674 0 32 14.326 32 32v320
c0 17.674 -14.326 32 -32 32h-32v64h576zM768 768h-704v64h704v-64z" />
    <glyph glyph-name="image" unicode="&#xe90d;" 
d="M959.884 832c0.04 -0.034 0.082 -0.076 0.116 -0.116v-767.77c-0.034 -0.04 -0.076 -0.082 -0.116 -0.116h-895.77c-0.04 0.034 -0.082 0.076 -0.114 0.116v767.772c0.034 0.04 0.076 0.082 0.114 0.114zM960 896h-896c-35.2 0 -64 -28.8 -64 -64v-768
c0 -35.2 28.8 -64 64 -64h896c35.2 0 64 28.8 64 64v768c0 35.2 -28.8 64 -64 64v0zM832 672c0 -53.02 -42.98 -96 -96 -96s-96 42.98 -96 96s42.98 96 96 96s96 -42.98 96 -96zM896 128h-768v128l224 384l256 -320h64l224 192v-384z" />
    <glyph glyph-name="images" unicode="&#xe90e;" horiz-adv-x="1152" 
d="M1088 832h-64v64c0 35.2 -28.8 64 -64 64h-896c-35.2 0 -64 -28.8 -64 -64v-768c0 -35.2 28.8 -64 64 -64h64v-64c0 -35.2 28.8 -64 64 -64h896c35.2 0 64 28.8 64 64v768c0 35.2 -28.8 64 -64 64zM128 768v-640h-63.886c-0.04 0.034 -0.082 0.076 -0.114 0.116v767.77
c0.034 0.04 0.076 0.082 0.114 0.114h895.77c0.04 -0.034 0.082 -0.076 0.116 -0.116v-63.884h-768c-35.2 0 -64 -28.8 -64 -64v0zM1088 0.116c-0.034 -0.04 -0.076 -0.082 -0.116 -0.116h-895.77c-0.04 0.034 -0.082 0.076 -0.114 0.116v767.77
c0.034 0.04 0.076 0.082 0.114 0.114h895.77c0.04 -0.034 0.082 -0.076 0.116 -0.116v-767.768zM960 608c0 -53.02 -42.98 -96 -96 -96s-96 42.98 -96 96s42.98 96 96 96s96 -42.98 96 -96zM1024 64h-768v128l224 384l256 -320h64l224 192v-384z" />
    <glyph glyph-name="camera" unicode="&#xe90f;" 
d="M304 352c0 -114.876 93.124 -208 208 -208s208 93.124 208 208c0 114.876 -93.124 208 -208 208s-208 -93.124 -208 -208zM960 704h-224c-16 64 -32 128 -96 128h-256c-64 0 -80 -64 -96 -128h-224c-35.2 0 -64 -28.8 -64 -64v-576c0 -35.2 28.8 -64 64 -64h896
c35.2 0 64 28.8 64 64v576c0 35.2 -28.8 64 -64 64zM512 68c-156.85 0 -284 127.148 -284 284c0 156.85 127.15 284 284 284c156.852 0 284 -127.15 284 -284c0 -156.852 -127.146 -284 -284 -284zM960 512h-128v64h128v-64z" />
    <glyph glyph-name="headphones" unicode="&#xe910;" 
d="M288 384h-64v-448h64c17.6 0 32 14.4 32 32v384c0 17.6 -14.4 32 -32 32zM736 384c-17.602 0 -32 -14.4 -32 -32v-384c0 -17.6 14.398 -32 32 -32h64v448h-64zM1024 448c0 282.77 -229.23 512 -512 512s-512 -229.23 -512 -512c0 -61.412 10.83 -120.29 30.656 -174.848
c-19.478 -33.206 -30.656 -71.87 -30.656 -113.152c0 -112.846 83.448 -206.188 192 -221.716v443.418c-31.914 -4.566 -61.664 -15.842 -87.754 -32.378c-5.392 26.718 -8.246 54.364 -8.246 82.676c0 229.75 186.25 416 416 416s416 -186.25 416 -416
c0 -28.314 -2.83 -55.968 -8.22 -82.696c-26.1 16.546 -55.854 27.848 -87.78 32.418v-443.44c108.548 15.532 192 108.874 192 221.714c0 41.274 -11.178 79.934 -30.648 113.138c19.828 54.566 30.648 113.452 30.648 174.866z" />
    <glyph glyph-name="music" unicode="&#xe911;" 
d="M960 960h64v-736c0 -88.366 -100.29 -160 -224 -160s-224 71.634 -224 160c0 88.368 100.29 160 224 160c62.684 0 119.342 -18.4 160 -48.04v368.04l-512 -113.778v-494.222c0 -88.366 -100.288 -160 -224 -160s-224 71.634 -224 160c0 88.368 100.288 160 224 160
c62.684 0 119.342 -18.4 160 -48.04v624.04z" />
    <glyph glyph-name="play" unicode="&#xe912;" 
d="M981.188 799.892c-143.632 20.65 -302.332 32.108 -469.186 32.108c-166.86 0 -325.556 -11.458 -469.194 -32.108c-27.53 -107.726 -42.808 -226.75 -42.808 -351.892c0 -125.14 15.278 -244.166 42.808 -351.89c143.638 -20.652 302.336 -32.11 469.194 -32.11
c166.854 0 325.552 11.458 469.186 32.11c27.532 107.724 42.812 226.75 42.812 351.89c0 125.142 -15.28 244.166 -42.812 351.892zM384.002 256v384l320 -192z" />
    <glyph glyph-name="film" unicode="&#xe913;" 
d="M0 832v-768h1024v768h-1024zM192 128h-128v128h128v-128zM192 384h-128v128h128v-128zM192 640h-128v128h128v-128zM768 128h-512v640h512v-640zM960 128h-128v128h128v-128zM960 384h-128v128h128v-128zM960 640h-128v128h128v-128zM384 640v-384l256 192z" />
    <glyph glyph-name="video-camera" unicode="&#xe914;" 
d="M384 672c0 88.366 71.634 160 160 160s160 -71.634 160 -160s-71.634 -160 -160 -160s-160 71.634 -160 160zM0 672c0 88.366 71.634 160 160 160c88.366 0 160 -71.634 160 -160s-71.634 -160 -160 -160s-160 71.634 -160 160zM768 352v96c0 35.2 -28.8 64 -64 64h-640
c-35.2 0 -64 -28.8 -64 -64v-320c0 -35.2 28.8 -64 64 -64h640c35.2 0 64 28.8 64 64v96l256 -160v448zM640 192h-512v192h512v-192z" />
    <glyph glyph-name="dice" unicode="&#xe915;" 
d="M864 768h-512c-88 0 -160 -72 -160 -160v-512c0 -88 72 -160 160 -160h512c88 0 160 72 160 160v512c0 88 -72 160 -160 160zM416 64c-53.02 0 -96 42.98 -96 96s42.98 96 96 96s96 -42.98 96 -96s-42.98 -96 -96 -96zM416 448c-53.02 0 -96 42.98 -96 96s42.98 96 96 96
s96 -42.98 96 -96s-42.98 -96 -96 -96zM608 256c-53.02 0 -96 42.98 -96 96s42.98 96 96 96s96 -42.98 96 -96s-42.98 -96 -96 -96zM800 64c-53.02 0 -96 42.98 -96 96s42.98 96 96 96s96 -42.98 96 -96s-42.98 -96 -96 -96zM800 448c-53.02 0 -96 42.98 -96 96
s42.98 96 96 96s96 -42.98 96 -96s-42.98 -96 -96 -96zM828.76 832c-14.93 72.804 -79.71 128 -156.76 128h-512c-88 0 -160 -72 -160 -160v-512c0 -77.046 55.196 -141.83 128 -156.76v636.76c0 35.2 28.8 64 64 64h636.76z" />
    <glyph glyph-name="pacman" unicode="&#xe916;" 
d="M964.73 781.196c-93.902 109.45 -233.21 178.804 -388.73 178.804c-282.77 0 -512 -229.23 -512 -512s229.23 -512 512 -512c155.52 0 294.828 69.356 388.728 178.804l-324.728 333.196zM704 839.398c39.432 0 71.398 -31.964 71.398 -71.398
c0 -39.432 -31.966 -71.398 -71.398 -71.398s-71.398 31.966 -71.398 71.398s31.966 71.398 71.398 71.398z" />
    <glyph glyph-name="spades" unicode="&#xe917;" 
d="M817.57 611.85c-193.566 143.858 -260.266 259.018 -305.566 348.148v0c-0.004 0 -0.004 0.002 -0.004 0.002v-0.002c-45.296 -89.13 -112 -204.292 -305.566 -348.148c-330.036 -245.286 -19.376 -587.668 253.758 -399.224
c-17.796 -116.93 -78.53 -202.172 -140.208 -238.882v-37.744h384.032v37.74c-61.682 36.708 -122.41 121.954 -140.212 238.884c273.136 -188.446 583.8 153.94 253.766 399.226z" />
    <glyph glyph-name="clubs" unicode="&#xe918;" 
d="M786.832 567.228c-59.032 0 -112.086 -24.596 -149.852 -64.694c-15.996 -16.984 -43.762 -37.112 -73.8 -54.81c14.11 53.868 58.676 121.7 89.628 151.456c39.64 38.17 63.984 91.83 63.984 151.5c0.006 114.894 -91.476 208.096 -204.788 209.32
c-113.32 -1.222 -204.796 -94.426 -204.796 -209.318c0 -59.672 24.344 -113.33 63.986 -151.5c30.954 -29.756 75.52 -97.588 89.628 -151.456c-30.042 17.7 -57.806 37.826 -73.8 54.81c-37.768 40.098 -90.82 64.694 -149.85 64.694
c-114.386 0 -207.08 -93.664 -207.08 -209.328c0 -115.638 92.692 -209.338 207.08 -209.338c59.042 0 112.082 25.356 149.85 65.452c16.804 17.872 46.444 40.138 78.292 58.632c-3.002 -147.692 -73.532 -256.168 -145.318 -298.906v-37.742h384.014v37.74
c-71.792 42.736 -142.32 151.216 -145.32 298.906c31.852 -18.494 61.488 -40.768 78.292 -58.632c37.766 -40.094 90.808 -65.452 149.852 -65.452c114.386 0 207.078 93.7 207.078 209.338c-0.002 115.664 -92.692 209.328 -207.08 209.328z" />
    <glyph glyph-name="diamonds" unicode="&#xe919;" 
d="M512 960l-320 -512l320 -512l320 512z" />
    <glyph glyph-name="bullhorn" unicode="&#xe91a;" 
d="M1024 530.744c0 200.926 -58.792 363.938 -131.482 365.226c0.292 0.006 0.578 0.03 0.872 0.03h-82.942s-194.8 -146.336 -475.23 -203.754c-8.56 -45.292 -14.03 -99.274 -14.03 -161.502s5.466 -116.208 14.03 -161.5
c280.428 -57.418 475.23 -203.756 475.23 -203.756h82.942c-0.292 0 -0.578 0.024 -0.872 0.032c72.696 1.288 131.482 164.298 131.482 365.224zM864.824 220.748c-9.382 0 -19.532 9.742 -24.746 15.548c-12.63 14.064 -24.792 35.96 -35.188 63.328
c-23.256 61.232 -36.066 143.31 -36.066 231.124c0 87.81 12.81 169.89 36.066 231.122c10.394 27.368 22.562 49.266 35.188 63.328c5.214 5.812 15.364 15.552 24.746 15.552c9.38 0 19.536 -9.744 24.744 -15.552c12.634 -14.064 24.796 -35.958 35.188 -63.328
c23.258 -61.23 36.068 -143.312 36.068 -231.122c0 -87.804 -12.81 -169.888 -36.068 -231.124c-10.39 -27.368 -22.562 -49.264 -35.188 -63.328c-5.208 -5.806 -15.36 -15.548 -24.744 -15.548zM251.812 530.744c0 51.95 3.81 102.43 11.052 149.094
c-47.372 -6.554 -88.942 -10.324 -140.34 -10.324h-67.058l-55.466 -94.686v-88.17l55.46 -94.686h67.06c51.398 0 92.968 -3.774 140.34 -10.324c-7.236 46.664 -11.048 97.146 -11.048 149.096zM368.15 317.828l-127.998 24.51l81.842 -321.544
c4.236 -16.634 20.744 -25.038 36.686 -18.654l118.556 47.452c15.944 6.376 22.328 23.964 14.196 39.084zM864.824 411.27c-3.618 0 -7.528 3.754 -9.538 5.992c-4.87 5.42 -9.556 13.86 -13.562 24.408c-8.962 23.6 -13.9 55.234 -13.9 89.078s4.938 65.478 13.9 89.078
c4.006 10.548 8.696 18.988 13.562 24.408c2.01 2.24 5.92 5.994 9.538 5.994c3.616 0 7.53 -3.756 9.538 -5.994c4.87 -5.42 9.556 -13.858 13.56 -24.408c8.964 -23.598 13.902 -55.234 13.902 -89.078c0 -33.842 -4.938 -65.478 -13.902 -89.078
c-4.004 -10.548 -8.696 -18.988 -13.56 -24.408c-2.008 -2.238 -5.92 -5.992 -9.538 -5.992z" />
    <glyph glyph-name="connection" unicode="&#xe91b;" horiz-adv-x="1280" 
d="M640 384c105.87 0 201.87 -43.066 271.402 -112.598l-90.468 -90.468c-46.354 46.356 -110.356 75.066 -180.934 75.066s-134.578 -28.71 -180.934 -75.066l-90.468 90.468c69.532 69.532 165.532 112.598 271.402 112.598zM187.452 452.548
c120.88 120.88 281.598 187.452 452.548 187.452c170.95 0 331.668 -66.572 452.55 -187.452l-90.51 -90.508c-96.706 96.704 -225.28 149.96 -362.04 149.96c-136.762 0 -265.334 -53.256 -362.038 -149.962zM988.784 825.562
c106.702 -45.132 202.516 -109.728 284.782 -191.996v0l-90.508 -90.508c-145.056 145.056 -337.92 224.942 -543.058 224.942c-205.14 0 -398 -79.886 -543.058 -224.942l-90.51 90.51c82.268 82.266 178.082 146.862 284.784 191.994
c110.504 46.738 227.852 70.438 348.784 70.438s238.278 -23.7 348.784 -70.438zM576 64c0 35.346 28.654 64 64 64s64 -28.654 64 -64c0 -35.346 -28.654 -64 -64 -64s-64 28.654 -64 64z" />
    <glyph glyph-name="podcast" unicode="&#xe91c;" 
d="M1024 448c0 282.77 -229.23 512 -512 512s-512 -229.23 -512 -512c0 -220.054 138.836 -407.664 333.686 -480.068l-13.686 -31.932h384l-13.686 31.932c194.85 72.404 333.686 260.014 333.686 480.068zM486.79 325.174c-22.808 9.788 -38.79 32.436 -38.79 58.826
c0 35.346 28.654 64 64 64s64 -28.654 64 -64c0 -26.39 -15.978 -49.044 -38.786 -58.834l-25.214 58.834zM538.268 322.708c58.092 12.118 101.732 63.602 101.732 125.292c0 70.694 -57.306 128 -128 128c-70.692 0 -128 -57.306 -128 -128
c0 -61.692 43.662 -113.122 101.76 -125.228l-74.624 -174.122c-91.23 39.15 -155.136 129.784 -155.136 235.35c0 141.384 114.616 268 256 268s256 -126.616 256 -268c0 -105.566 -63.906 -196.2 -155.136 -235.35zM688.448 -27.708l-73.924 172.486
c126.446 42.738 217.476 162.346 217.476 303.222c0 176.73 -143.268 320 -320 320c-176.73 0 -320 -143.27 -320 -320c0 -140.876 91.03 -260.484 217.476 -303.222l-73.924 -172.486c-159.594 68.488 -271.386 227.034 -271.386 411.708
c0 247.332 200.502 459.834 447.834 459.834s447.834 -212.502 447.834 -459.834c0 -184.674 -111.792 -343.22 -271.386 -411.708z" />
    <glyph glyph-name="feed" unicode="&#xe91d;" 
d="M384 448c0 70.692 57.308 128 128 128s128 -57.308 128 -128s-57.308 -128 -128 -128s-128 57.308 -128 128zM664.348 729.474c99.852 -54.158 167.652 -159.898 167.652 -281.474s-67.8 -227.316 -167.652 -281.474c44.066 70.126 71.652 170.27 71.652 281.474
s-27.586 211.348 -71.652 281.474zM288 448c0 -111.204 27.584 -211.348 71.652 -281.474c-99.852 54.16 -167.652 159.898 -167.652 281.474s67.8 227.314 167.652 281.474c-44.068 -70.126 -71.652 -170.27 -71.652 -281.474zM96 448
c0 -171.9 54.404 -326.184 140.652 -431.722c-142.302 90.948 -236.652 250.314 -236.652 431.722s94.35 340.774 236.652 431.722c-86.248 -105.538 -140.652 -259.822 -140.652 -431.722zM787.352 879.72c142.298 -90.946 236.648 -250.312 236.648 -431.72
s-94.35 -340.774 -236.648 -431.72c86.244 105.536 140.648 259.82 140.648 431.72c0 171.9 -54.404 326.184 -140.648 431.72z" />
    <glyph glyph-name="mic" unicode="&#xe91e;" 
d="M480 256c88.366 0 160 71.634 160 160v384c0 88.366 -71.634 160 -160 160s-160 -71.634 -160 -160v-384c0 -88.366 71.636 -160 160 -160zM704 512v-96c0 -123.71 -100.29 -224 -224 -224c-123.712 0 -224 100.29 -224 224v96h-64v-96
c0 -148.238 112.004 -270.3 256 -286.22v-129.78h-128v-64h320v64h-128v129.78c143.994 15.92 256 137.982 256 286.22v96h-64z" />
    <glyph glyph-name="book" unicode="&#xe91f;" 
d="M896 832v-832h-672c-53.026 0 -96 42.98 -96 96c0 53.02 42.974 96 96 96h608v768h-640c-70.398 0 -128 -57.6 -128 -128v-768c0 -70.4 57.602 -128 128 -128h768v896h-64zM224.056 128v0c-0.018 -0.002 -0.038 0 -0.056 0c-17.672 0 -32 -14.326 -32 -32
s14.328 -32 32 -32c0.018 0 0.038 0.002 0.056 0.002v-0.002h607.89v64h-607.89z" />
    <glyph glyph-name="books" unicode="&#xe920;" horiz-adv-x="1152" 
d="M224 832h-192c-17.6 0 -32 -14.4 -32 -32v-704c0 -17.6 14.4 -32 32 -32h192c17.6 0 32 14.4 32 32v704c0 17.6 -14.4 32 -32 32zM192 640h-128v64h128v-64zM544 832h-192c-17.6 0 -32 -14.4 -32 -32v-704c0 -17.6 14.4 -32 32 -32h192c17.6 0 32 14.4 32 32v704
c0 17.6 -14.4 32 -32 32zM512 640h-128v64h128v-64zM765.088 782.52l-171.464 -86.394c-15.716 -7.918 -22.096 -27.258 -14.178 -42.976l287.978 -571.548c7.918 -15.718 27.258 -22.098 42.976 -14.178l171.464 86.392c15.716 7.92 22.096 27.26 14.178 42.974
l-287.978 571.55c-7.92 15.718 -27.26 22.1 -42.976 14.18z" />
    <glyph glyph-name="library" unicode="&#xe921;" horiz-adv-x="1088" 
d="M1024 0v64h-64v384h64v64h-192v-64h64v-384h-192v384h64v64h-192v-64h64v-384h-192v384h64v64h-192v-64h64v-384h-192v384h64v64h-192v-64h64v-384h-64v-64h-64v-64h1088v64h-64zM512 960h64l512 -320v-64h-1088v64z" />
    <glyph glyph-name="file-text" unicode="&#xe922;" 
d="M864 960h-768c-52.8 0 -96 -43.2 -96 -96v-832c0 -52.8 43.2 -96 96 -96h768c52.8 0 96 43.2 96 96v832c0 52.8 -43.2 96 -96 96zM832 64h-704v768h704v-768zM256 512h448v-64h-448v64zM256 384h448v-64h-448v64zM256 256h448v-64h-448v64zM256 640h448v-64h-448v64z" />
    <glyph glyph-name="profile" unicode="&#xe923;" 
d="M864 960h-768c-52.8 0 -96 -43.2 -96 -96v-832c0 -52.8 43.2 -96 96 -96h768c52.8 0 96 43.2 96 96v832c0 52.8 -43.2 96 -96 96zM832 64h-704v768h704v-768zM256 384h448v-64h-448v64zM256 256h448v-64h-448v64zM320 672c0 53.019 42.981 96 96 96s96 -42.981 96 -96
s-42.981 -96 -96 -96s-96 42.981 -96 96zM480 576h-128c-52.8 0 -96 -28.8 -96 -64v-64h320v64c0 35.2 -43.2 64 -96 64z" />
    <glyph glyph-name="file-empty" unicode="&#xe924;" 
d="M917.806 730.924c-22.212 30.292 -53.174 65.7 -87.178 99.704s-69.412 64.964 -99.704 87.178c-51.574 37.82 -76.592 42.194 -90.924 42.194h-496c-44.112 0 -80 -35.888 -80 -80v-864c0 -44.112 35.888 -80 80 -80h736c44.112 0 80 35.888 80 80v624
c0 14.332 -4.372 39.35 -42.194 90.924zM785.374 785.374c30.7 -30.7 54.8 -58.398 72.58 -81.374h-153.954v153.946c22.984 -17.78 50.678 -41.878 81.374 -72.572zM896 16c0 -8.672 -7.328 -16 -16 -16h-736c-8.672 0 -16 7.328 -16 16v864c0 8.672 7.328 16 16 16
c0 0 495.956 0.002 496 0v-224c0 -17.672 14.326 -32 32 -32h224v-624z" />
    <glyph glyph-name="files-empty" unicode="&#xe925;" 
d="M917.806 602.924c-22.21 30.292 -53.174 65.7 -87.178 99.704s-69.412 64.964 -99.704 87.178c-51.574 37.82 -76.592 42.194 -90.924 42.194h-368c-44.114 0 -80 -35.888 -80 -80v-736c0 -44.112 35.886 -80 80 -80h608c44.112 0 80 35.888 80 80v496
c0 14.332 -4.372 39.35 -42.194 90.924zM785.374 657.374c30.7 -30.7 54.8 -58.398 72.58 -81.374h-153.954v153.946c22.982 -17.78 50.678 -41.878 81.374 -72.572v0zM896 16c0 -8.672 -7.328 -16 -16 -16h-608c-8.672 0 -16 7.328 -16 16v736c0 8.672 7.328 16 16 16
c0 0 367.956 0.002 368 0v-224c0 -17.672 14.324 -32 32 -32h224v-496zM602.924 917.804c-51.574 37.822 -76.592 42.196 -90.924 42.196h-368c-44.112 0 -80 -35.888 -80 -80v-736c0 -38.632 27.528 -70.958 64 -78.39v814.39c0 8.672 7.328 16 16 16h486.876
c-9.646 7.92 -19.028 15.26 -27.952 21.804z" />
    <glyph glyph-name="file-text2" unicode="&#xe926;" 
d="M917.806 730.924c-22.212 30.292 -53.174 65.7 -87.178 99.704s-69.412 64.964 -99.704 87.178c-51.574 37.82 -76.592 42.194 -90.924 42.194h-496c-44.112 0 -80 -35.888 -80 -80v-864c0 -44.112 35.888 -80 80 -80h736c44.112 0 80 35.888 80 80v624
c0 14.332 -4.372 39.35 -42.194 90.924zM785.374 785.374c30.7 -30.7 54.8 -58.398 72.58 -81.374h-153.954v153.946c22.984 -17.78 50.678 -41.878 81.374 -72.572zM896 16c0 -8.672 -7.328 -16 -16 -16h-736c-8.672 0 -16 7.328 -16 16v864c0 8.672 7.328 16 16 16
c0 0 495.956 0.002 496 0v-224c0 -17.672 14.326 -32 32 -32h224v-624zM736 128h-448c-17.672 0 -32 14.326 -32 32s14.328 32 32 32h448c17.674 0 32 -14.326 32 -32s-14.326 -32 -32 -32zM736 256h-448c-17.672 0 -32 14.326 -32 32s14.328 32 32 32h448
c17.674 0 32 -14.326 32 -32s-14.326 -32 -32 -32zM736 384h-448c-17.672 0 -32 14.326 -32 32s14.328 32 32 32h448c17.674 0 32 -14.326 32 -32s-14.326 -32 -32 -32z" />
    <glyph glyph-name="file-picture" unicode="&#xe927;" 
d="M832 64h-640v128l192 320l263 -320l185 128v-256zM832 480c0 -53.02 -42.98 -96 -96 -96c-53.022 0 -96 42.98 -96 96s42.978 96 96 96c53.02 0 96 -42.98 96 -96zM917.806 730.924c-22.212 30.292 -53.174 65.7 -87.178 99.704s-69.412 64.964 -99.704 87.178
c-51.574 37.82 -76.592 42.194 -90.924 42.194h-496c-44.112 0 -80 -35.888 -80 -80v-864c0 -44.112 35.888 -80 80 -80h736c44.112 0 80 35.888 80 80v624c0 14.332 -4.372 39.35 -42.194 90.924zM785.374 785.374c30.7 -30.7 54.8 -58.398 72.58 -81.374h-153.954v153.946
c22.984 -17.78 50.678 -41.878 81.374 -72.572zM896 16c0 -8.672 -7.328 -16 -16 -16h-736c-8.672 0 -16 7.328 -16 16v864c0 8.672 7.328 16 16 16c0 0 495.956 0.002 496 0v-224c0 -17.672 14.326 -32 32 -32h224v-624z" />
    <glyph glyph-name="file-music" unicode="&#xe928;" 
d="M917.806 730.924c-22.21 30.292 -53.174 65.7 -87.178 99.704s-69.412 64.964 -99.704 87.178c-51.574 37.82 -76.592 42.194 -90.924 42.194h-496c-44.112 0 -80 -35.888 -80 -80v-864c0 -44.112 35.886 -80 80 -80h736c44.112 0 80 35.888 80 80v624
c0 14.332 -4.372 39.35 -42.194 90.924zM785.374 785.374c30.7 -30.7 54.8 -58.398 72.58 -81.374h-153.954v153.946c22.982 -17.78 50.678 -41.878 81.374 -72.572v0zM896 16c0 -8.672 -7.328 -16 -16 -16h-736c-8.672 0 -16 7.328 -16 16v864c0 8.672 7.328 16 16 16
c0 0 495.956 0.002 496 0v-224c0 -17.672 14.324 -32 32 -32h224v-624zM756.288 568.748c-7.414 6.08 -17.164 8.514 -26.562 6.632l-320 -64c-14.958 -2.994 -25.726 -16.126 -25.726 -31.38v-236.876c-18.832 8.174 -40.678 12.876 -64 12.876
c-70.692 0 -128 -42.98 -128 -96s57.308 -96 128 -96s128 42.98 128 96v229.766l256 51.202v-133.842c-18.832 8.174 -40.678 12.876 -64 12.876c-70.692 0 -128 -42.98 -128 -96s57.308 -96 128 -96s128 42.98 128 96v319.998c0 9.586 -4.298 18.668 -11.712 24.748z" />
    <glyph glyph-name="file-play" unicode="&#xe929;" 
d="M384 576l320 -224l-320 -224v448zM917.806 730.924c-22.212 30.292 -53.174 65.7 -87.178 99.704s-69.412 64.964 -99.704 87.178c-51.574 37.82 -76.592 42.194 -90.924 42.194h-496c-44.112 0 -80 -35.888 -80 -80v-864c0 -44.112 35.888 -80 80 -80h736
c44.112 0 80 35.888 80 80v624c0 14.332 -4.372 39.35 -42.194 90.924zM785.374 785.374c30.7 -30.7 54.8 -58.398 72.58 -81.374h-153.954v153.946c22.984 -17.78 50.678 -41.878 81.374 -72.572zM896 16c0 -8.672 -7.328 -16 -16 -16h-736c-8.672 0 -16 7.328 -16 16v864
c0 8.672 7.328 16 16 16c0 0 495.956 0.002 496 0v-224c0 -17.672 14.326 -32 32 -32h224v-624z" />
    <glyph glyph-name="file-video" unicode="&#xe92a;" 
d="M917.806 730.924c-22.208 30.292 -53.174 65.7 -87.178 99.704s-69.412 64.964 -99.704 87.178c-51.574 37.82 -76.594 42.194 -90.924 42.194h-496c-44.112 0 -80 -35.888 -80 -80v-864c0 -44.112 35.882 -80 80 -80h736c44.112 0 80 35.888 80 80v624
c0 14.332 -4.372 39.35 -42.194 90.924v0zM785.374 785.374c30.7 -30.7 54.8 -58.398 72.58 -81.374h-153.954v153.946c22.98 -17.78 50.678 -41.878 81.374 -72.572v0v0zM896 16c0 -8.672 -7.328 -16 -16 -16h-736c-8.672 0 -16 7.328 -16 16v864c0 8.672 7.328 16 16 16
c0 0 495.956 0.002 496 0v-224c0 -17.672 14.32 -32 32 -32h224v-624zM256 448h320v-320h-320v320zM576 320l192 128v-320l-192 128v64z" />
    <glyph glyph-name="file-zip" unicode="&#xe92b;" 
d="M917.806 730.924c-22.208 30.292 -53.174 65.7 -87.178 99.704s-69.412 64.964 -99.704 87.178c-51.574 37.82 -76.592 42.194 -90.924 42.194h-496c-44.112 0 -80 -35.888 -80 -80v-864c0 -44.112 35.884 -80 80 -80h736c44.112 0 80 35.888 80 80v624
c0 14.332 -4.372 39.35 -42.194 90.924v0zM785.374 785.374c30.7 -30.7 54.8 -58.398 72.58 -81.374h-153.954v153.946c22.98 -17.78 50.678 -41.878 81.374 -72.572v0v0zM896 16c0 -8.672 -7.328 -16 -16 -16h-736c-8.672 0 -16 7.328 -16 16v864c0 8.672 7.328 16 16 16
c0 0 495.956 0.002 496 0v-224c0 -17.672 14.322 -32 32 -32h224v-624zM256 896h128v-64h-128v64zM384 832h128v-64h-128v64zM256 768h128v-64h-128v64zM384 704h128v-64h-128v64zM256 640h128v-64h-128v64zM384 576h128v-64h-128v64zM256 512h128v-64h-128v64zM384 448h128
v-64h-128v64zM256 112c0 -26.4 21.6 -48 48 -48h160c26.4 0 48 21.6 48 48v160c0 26.4 -21.6 48 -48 48h-80v64h-128v-272zM448 192v-64h-128v64h128z" />
    <glyph glyph-name="copy" unicode="&#xe92c;" 
d="M640 704v256h-448l-192 -192v-576h384v-256h640v768h-384zM192 869.49v-101.49h-101.49zM64 256v448h192v192h320v-192l-192 -192v-256h-320zM576 613.49v-101.49h-101.49zM960 0h-512v448h192v192h320v-640z" />
    <glyph glyph-name="paste" unicode="&#xe92d;" 
d="M704 832h-128v64c0 35.2 -28.8 64 -64 64h-128c-35.204 0 -64 -28.8 -64 -64v-64h-128v-128h512v128zM512 832h-128v63.886c0.034 0.038 0.072 0.078 0.114 0.114h127.768c0.042 -0.036 0.082 -0.076 0.118 -0.114zM832 640v160c0 17.6 -14.4 32 -32 32h-64v-64h32v-128
h-192l-192 -192v-256h-256v576h32v64h-64c-17.602 0 -32 -14.4 -32 -32v-640c0 -17.6 14.398 -32 32 -32h288v-192h640v704h-192zM576 549.49v-101.49h-101.49zM960 0h-512v384h192v192h320v-576z" />
    <glyph glyph-name="stack" unicode="&#xe92e;" 
d="M1024 640l-512 256l-512 -256l512 -256zM512 811.03l342.058 -171.03l-342.058 -171.03l-342.058 171.03zM921.444 499.278l102.556 -51.278l-512 -256l-512 256l102.556 51.278l409.444 -204.722zM921.444 307.278l102.556 -51.278l-512 -256l-512 256l102.556 51.278
l409.444 -204.722z" />
    <glyph glyph-name="folder" unicode="&#xe92f;" 
d="M448 832l128 -128h448v-704h-1024v832h448z" />
    <glyph glyph-name="folder-open" unicode="&#xe930;" 
d="M832 0l192 512h-832l-192 -512h832zM128 576l-128 -576v832h288l128 -128h416v-128h-704z" />
    <glyph glyph-name="folder-plus" unicode="&#xe931;" 
d="M576 704l-128 128h-448v-832h1024v704h-448zM704 256h-128v-128h-128v128h-128v128h128v128h128v-128h128v-128z" />
    <glyph glyph-name="folder-minus" unicode="&#xe932;" 
d="M576 704l-128 128h-448v-832h1024v704h-448zM704 256h-384v128h384v-128z" />
    <glyph glyph-name="folder-download" unicode="&#xe933;" 
d="M576 704l-128 128h-448v-832h1024v704h-448zM512 96l-224 224h160v256h128v-256h160z" />
    <glyph glyph-name="folder-upload" unicode="&#xe934;" 
d="M576 704l-128 128h-448v-832h1024v704h-448zM512 480l224 -224h-160v-256h-128v256h-160z" />
    <glyph glyph-name="price-tag" unicode="&#xe935;" 
d="M976 960h-384c-26.4 0 -63.274 -15.274 -81.942 -33.942l-476.116 -476.116c-18.668 -18.668 -18.668 -49.214 0 -67.882l412.118 -412.118c18.668 -18.668 49.214 -18.668 67.882 0l476.118 476.118c18.666 18.666 33.94 55.54 33.94 81.94v384c0 26.4 -21.6 48 -48 48z
M736 576c-53.02 0 -96 42.98 -96 96s42.98 96 96 96s96 -42.98 96 -96s-42.98 -96 -96 -96z" />
    <glyph glyph-name="price-tags" unicode="&#xe936;" horiz-adv-x="1280" 
d="M1232 960h-384c-26.4 0 -63.274 -15.274 -81.942 -33.942l-476.116 -476.116c-18.668 -18.668 -18.668 -49.214 0 -67.882l412.118 -412.118c18.668 -18.668 49.214 -18.668 67.882 0l476.118 476.118c18.666 18.666 33.94 55.54 33.94 81.94v384c0 26.4 -21.6 48 -48 48
zM992 576c-53.02 0 -96 42.98 -96 96s42.98 96 96 96s96 -42.98 96 -96s-42.98 -96 -96 -96zM128 416l544 544h-80c-26.4 0 -63.274 -15.274 -81.942 -33.942l-476.116 -476.116c-18.668 -18.668 -18.668 -49.214 0 -67.882l412.118 -412.118
c18.668 -18.668 49.214 -18.668 67.882 0l30.058 30.058z" />
    <glyph glyph-name="barcode" unicode="&#xe937;" 
d="M0 832h128v-640h-128v640zM192 832h64v-640h-64v640zM320 832h64v-640h-64v640zM512 832h64v-640h-64v640zM768 832h64v-640h-64v640zM960 832h64v-640h-64v640zM640 832h32v-640h-32v640zM448 832h32v-640h-32v640zM864 832h32v-640h-32v640zM0 128h64v-64h-64v64z
M192 128h64v-64h-64v64zM320 128h64v-64h-64v64zM640 128h64v-64h-64v64zM960 128h64v-64h-64v64zM768 128h128v-64h-128v64zM448 128h128v-64h-128v64z" />
    <glyph glyph-name="qrcode" unicode="&#xe938;" 
d="M320 896h-256v-256h256v256zM384 960v0v-384h-384v384h384zM128 832h128v-128h-128v128zM960 896h-256v-256h256v256zM1024 960v0v-384h-384v384h384zM768 832h128v-128h-128v128zM320 256h-256v-256h256v256zM384 320v0v-384h-384v384h384zM128 192h128v-128h-128v128z
M448 960h64v-64h-64v64zM512 896h64v-64h-64v64zM448 832h64v-64h-64v64zM512 768h64v-64h-64v64zM448 704h64v-64h-64v64zM512 640h64v-64h-64v64zM448 576h64v-64h-64v64zM448 448h64v-64h-64v64zM512 384h64v-64h-64v64zM448 320h64v-64h-64v64zM512 256h64v-64h-64v64z
M448 192h64v-64h-64v64zM512 128h64v-64h-64v64zM448 64h64v-64h-64v64zM512 0h64v-64h-64v64zM960 448h64v-64h-64v64zM64 448h64v-64h-64v64zM128 512h64v-64h-64v64zM0 512h64v-64h-64v64zM256 512h64v-64h-64v64zM320 448h64v-64h-64v64zM384 512h64v-64h-64v64z
M576 448h64v-64h-64v64zM640 512h64v-64h-64v64zM704 448h64v-64h-64v64zM768 512h64v-64h-64v64zM832 448h64v-64h-64v64zM896 512h64v-64h-64v64zM960 320h64v-64h-64v64zM576 320h64v-64h-64v64zM640 384h64v-64h-64v64zM704 320h64v-64h-64v64zM832 320h64v-64h-64v64z
M896 384h64v-64h-64v64zM960 192h64v-64h-64v64zM576 192h64v-64h-64v64zM640 256h64v-64h-64v64zM768 256h64v-64h-64v64zM832 192h64v-64h-64v64zM896 256h64v-64h-64v64zM960 64h64v-64h-64v64zM640 128h64v-64h-64v64zM704 64h64v-64h-64v64zM768 128h64v-64h-64v64z
M832 64h64v-64h-64v64zM640 0h64v-64h-64v64zM768 0h64v-64h-64v64zM896 0h64v-64h-64v64z" />
    <glyph glyph-name="ticket" unicode="&#xe939;" 
d="M575.996 640l127.998 -127.998l-255.994 -255.994l-127.998 127.998zM1001.53 662.496l-73.516 73.516l-32.008 -32.008c-16.378 -16.38 -39.01 -26.51 -64 -26.51c-49.988 0 -90.514 40.522 -90.514 90.51c0 25.002 10.14 47.638 26.534 64.018l31.988 31.986
l-73.518 73.516c-29.968 29.968 -79.008 29.968 -108.976 0l-595.04 -595.038c-29.966 -29.968 -29.966 -79.01 0 -108.976l73.52 -73.518l31.962 31.964c16.382 16.406 39.03 26.552 64.044 26.552c49.988 0 90.51 -40.524 90.51 -90.51
c0 -25.006 -10.14 -47.64 -26.534 -64.022l-31.984 -31.986l73.516 -73.518c29.966 -29.966 79.008 -29.966 108.976 0l595.04 595.04c29.964 29.976 29.964 79.016 0 108.984zM448.002 128.004l-256 256l384 384l256 -256z" />
    <glyph glyph-name="cart" unicode="&#xe93a;" 
d="M384 32c0 -53.019 -42.981 -96 -96 -96s-96 42.981 -96 96c0 53.019 42.981 96 96 96s96 -42.981 96 -96zM1024 32c0 -53.019 -42.981 -96 -96 -96s-96 42.981 -96 96c0 53.019 42.981 96 96 96s96 -42.981 96 -96zM1024 448v384h-768c0 35.346 -28.654 64 -64 64h-192
v-64h128l48.074 -412.054c-29.294 -23.458 -48.074 -59.5 -48.074 -99.946c0 -70.696 57.308 -128 128 -128h768v64h-768c-35.346 0 -64 28.654 -64 64c0 0.218 0.014 0.436 0.016 0.656z" />
    <glyph glyph-name="coin-dollar" unicode="&#xe93b;" 
d="M480 896c-265.096 0 -480 -214.904 -480 -480c0 -265.098 214.904 -480 480 -480c265.098 0 480 214.902 480 480c0 265.096 -214.902 480 -480 480zM480 32c-212.078 0 -384 171.922 -384 384c0 212.078 171.922 384 384 384s384 -171.922 384 -384
s-171.922 -384 -384 -384zM512 448v128h128v64h-128v64h-64v-64h-128v-256h128v-128h-128v-64h128v-64h64v64h128.002l-0.002 256h-128zM448 448h-64v128h64v-128zM576.002 256h-64.002v128h64.002v-128z" />
    <glyph glyph-name="coin-euro" unicode="&#xe93c;" 
d="M480 896c-265.096 0 -480 -214.904 -480 -480s214.904 -480 480 -480c265.098 0 480 214.902 480 480c0 265.098 -214.902 480 -480 480zM480 32c-212.078 0 -384 171.922 -384 384c0 212.078 171.922 384 384 384c212.076 0 384 -171.922 384 -384
s-171.924 -384 -384 -384zM670.824 315.66c-15.27 8.884 -34.862 3.708 -43.75 -11.57c-17.256 -29.662 -49.088 -48.09 -83.074 -48.09h-128c-41.716 0 -77.286 26.754 -90.496 64h154.496c17.672 0 32 14.326 32 32s-14.328 32 -32 32h-160v64h160
c17.672 0 32 14.328 32 32s-14.328 32 -32 32h-154.496c13.21 37.246 48.78 64 90.496 64h128c33.986 0 65.818 -18.426 83.074 -48.09c8.888 -15.276 28.478 -20.456 43.752 -11.568c15.276 8.888 20.456 28.476 11.568 43.752
c-28.672 49.288 -81.702 79.906 -138.394 79.906h-128c-77.268 0 -141.914 -55.056 -156.78 -128h-35.22c-17.672 0 -32 -14.328 -32 -32s14.328 -32 32 -32h32v-64h-32c-17.672 0 -32 -14.326 -32 -32s14.328 -32 32 -32h35.22c14.866 -72.944 79.512 -128 156.78 -128h128
c56.692 0 109.72 30.62 138.394 79.91c8.888 15.276 3.708 34.864 -11.57 43.75z" />
    <glyph glyph-name="coin-pound" unicode="&#xe93d;" 
d="M480 896c-265.096 0 -480 -214.904 -480 -480s214.904 -480 480 -480c265.098 0 480 214.902 480 480c0 265.098 -214.902 480 -480 480zM480 32c-212.078 0 -384 171.922 -384 384c0 212.078 171.922 384 384 384c212.074 0 384 -171.922 384 -384
s-171.926 -384 -384 -384zM608 256h-224v128h96c17.672 0 32 14.326 32 32s-14.328 32 -32 32h-96v32c0 52.934 43.066 96 96 96c34.17 0 66.042 -18.404 83.18 -48.03c8.85 -15.298 28.426 -20.526 43.722 -11.676c15.296 8.848 20.526 28.424 11.676 43.722
c-28.538 49.336 -81.638 79.984 -138.578 79.984c-88.224 0 -160 -71.776 -160 -160v-32h-32c-17.672 0 -32 -14.326 -32 -32s14.328 -32 32 -32h32v-192h288c17.674 0 32 14.326 32 32s-14.326 32 -32 32z" />
    <glyph glyph-name="coin-yen" unicode="&#xe93e;" 
d="M480 896c-265.096 0 -480 -214.904 -480 -480s214.904 -480 480 -480c265.098 0 480 214.902 480 480c0 265.098 -214.902 480 -480 480zM480 32c-212.078 0 -384 171.922 -384 384c0 212.078 171.922 384 384 384c212.076 0 384 -171.922 384 -384
s-171.924 -384 -384 -384zM608 384c17.674 0 32 14.326 32 32s-14.326 32 -32 32h-68.208l94.832 142.25c9.804 14.704 5.83 34.572 -8.876 44.376c-14.704 9.802 -34.572 5.83 -44.376 -8.876l-101.372 -152.062l-101.374 152.062
c-9.804 14.706 -29.672 18.68 -44.376 8.876c-14.706 -9.804 -18.678 -29.672 -8.876 -44.376l94.834 -142.25h-68.208c-17.672 0 -32 -14.326 -32 -32s14.328 -32 32 -32h96v-64h-96c-17.672 0 -32 -14.326 -32 -32s14.328 -32 32 -32h96v-96c0 -17.674 14.328 -32 32 -32
s32 14.326 32 32v96h96c17.674 0 32 14.326 32 32s-14.326 32 -32 32h-96v64h96z" />
    <glyph glyph-name="credit-card" unicode="&#xe93f;" 
d="M928 832h-832c-52.8 0 -96 -43.2 -96 -96v-576c0 -52.8 43.2 -96 96 -96h832c52.8 0 96 43.2 96 96v576c0 52.8 -43.2 96 -96 96zM96 768h832c17.346 0 32 -14.654 32 -32v-96h-896v96c0 17.346 14.654 32 32 32zM928 128h-832c-17.346 0 -32 14.654 -32 32v288h896v-288
c0 -17.346 -14.654 -32 -32 -32zM128 320h64v-128h-64v128zM256 320h64v-128h-64v128zM384 320h64v-128h-64v128z" />
    <glyph glyph-name="calculator" unicode="&#xe940;" 
d="M384 896h-320c-35.2 0 -64 -28.8 -64 -64v-320c0 -35.2 28.796 -64 64 -64h320c35.2 0 64 28.8 64 64v320c0 35.2 -28.8 64 -64 64zM384 640h-320v64h320v-64zM896 896h-320c-35.204 0 -64 -28.8 -64 -64v-832c0 -35.2 28.796 -64 64 -64h320c35.2 0 64 28.8 64 64v832
c0 35.2 -28.8 64 -64 64zM896 320h-320v64h320v-64zM896 512h-320v64h320v-64zM384 384h-320c-35.2 0 -64 -28.8 -64 -64v-320c0 -35.2 28.796 -64 64 -64h320c35.2 0 64 28.8 64 64v320c0 35.2 -28.8 64 -64 64zM384 128h-128v-128h-64v128h-128v64h128v128h64v-128h128
v-64z" />
    <glyph glyph-name="lifebuoy" unicode="&#xe941;" 
d="M512 960c-282.77 0 -512 -229.23 -512 -512s229.23 -512 512 -512c282.77 0 512 229.23 512 512c0 282.77 -229.23 512 -512 512zM320 448c0 106.04 85.96 192 192 192c106.04 0 192 -85.96 192 -192s-85.96 -192 -192 -192s-192 85.96 -192 192zM925.98 276.524v0
l-177.42 73.49c12.518 30.184 19.44 63.276 19.44 97.986s-6.922 67.802 -19.44 97.986l177.42 73.49c21.908 -52.822 34.02 -110.73 34.02 -171.476s-12.114 -118.654 -34.02 -171.476v0zM683.478 861.98v0v0l-73.49 -177.42c-30.184 12.518 -63.276 19.44 -97.988 19.44
s-67.802 -6.922 -97.986 -19.44l-73.49 177.422c52.822 21.904 110.732 34.018 171.476 34.018c60.746 0 118.654 -12.114 171.478 -34.02zM98.02 619.476l177.422 -73.49c-12.518 -30.184 -19.442 -63.276 -19.442 -97.986s6.922 -67.802 19.44 -97.986l-177.42 -73.49
c-21.906 52.822 -34.02 110.73 -34.02 171.476s12.114 118.654 34.02 171.476zM340.524 34.02l73.49 177.42c30.184 -12.518 63.276 -19.44 97.986 -19.44c34.71 0 67.802 6.922 97.986 19.44l73.49 -177.42c-52.822 -21.904 -110.73 -34.02 -171.476 -34.02
c-60.744 0 -118.654 12.114 -171.476 34.02z" />
    <glyph glyph-name="phone" unicode="&#xe942;" 
d="M704 320c-64 -64 -64 -128 -128 -128s-128 64 -192 128s-128 128 -128 192s64 64 128 128s-128 256 -192 256s-192 -192 -192 -192c0 -128 131.5 -387.5 256 -512s384 -256 512 -256c0 0 192 128 192 192s-192 256 -256 192z" />
    <glyph glyph-name="phone-hang-up" unicode="&#xe943;" 
d="M1017.38 384.006c8.004 -55.482 13.216 -131.392 -11.664 -160.446c-41.142 -48.044 -301.712 -48.044 -301.712 48.042c0 48.398 42.856 80.134 1.712 128.178c-40.472 47.262 -113.026 48.03 -193.714 48.042c-80.686 -0.012 -153.242 -0.78 -193.714 -48.042
c-41.142 -48.046 1.714 -79.78 1.714 -128.178c0 -96.086 -260.57 -96.086 -301.714 -48.044c-24.878 29.054 -19.668 104.964 -11.662 160.446c6.16 37.038 21.724 76.996 71.548 127.994c0 0.002 0.002 0.002 0.002 0.004c74.738 69.742 187.846 126.738 429.826 127.968
v0.03c1.344 0 2.664 -0.01 4 -0.014c1.338 0.004 2.656 0.014 4 0.014v-0.028c241.98 -1.23 355.088 -58.226 429.826 -127.968c0.002 -0.002 0.002 -0.004 0.002 -0.004c49.824 -50.996 65.39 -90.954 71.55 -127.994z" />
    <glyph glyph-name="address-book" unicode="&#xe944;" 
d="M192 960v-1024h768v1024h-768zM576 703.67c70.51 0 127.67 -57.16 127.67 -127.67s-57.16 -127.67 -127.67 -127.67s-127.67 57.16 -127.67 127.67s57.16 127.67 127.67 127.67v0zM768 192h-384v64c0 70.696 57.306 128 128 128v0h128c70.696 0 128 -57.304 128 -128v-64
zM64 896h96v-192h-96v192zM64 640h96v-192h-96v192zM64 384h96v-192h-96v192zM64 128h96v-192h-96v192z" />
    <glyph glyph-name="envelop" unicode="&#xe945;" 
d="M928 832h-832c-52.8 0 -96 -43.2 -96 -96v-640c0 -52.8 43.2 -96 96 -96h832c52.8 0 96 43.2 96 96v640c0 52.8 -43.2 96 -96 96zM398.74 409.628l-270.74 -210.892v501.642zM176.38 704h671.24l-335.62 -252zM409.288 398.302l102.712 -110.302l102.71 110.302
l210.554 -270.302h-626.528zM625.26 409.628l270.74 290.75v-501.642z" />
    <glyph glyph-name="pushpin" unicode="&#xe946;" 
d="M544 960l-96 -96l96 -96l-224 -256h-224l176 -176l-272 -360.616v-39.384h39.384l360.616 272l176 -176v224l256 224l96 -96l96 96zM448 416l-64 64l224 224l64 -64z" />
    <glyph glyph-name="location" unicode="&#xe947;" 
d="M512 960c-176.732 0 -320 -143.268 -320 -320c0 -320 320 -704 320 -704s320 384 320 704c0 176.732 -143.27 320 -320 320zM512 448c-106.04 0 -192 85.96 -192 192s85.96 192 192 192c106.04 0 192 -85.96 192 -192s-85.96 -192 -192 -192z" />
    <glyph glyph-name="location2" unicode="&#xe948;" 
d="M512 960c-176.732 0 -320 -143.268 -320 -320c0 -320 320 -704 320 -704s320 384 320 704c0 176.732 -143.27 320 -320 320zM512 444c-108.248 0 -196 87.752 -196 196s87.752 196 196 196c108.248 0 196 -87.752 196 -196s-87.752 -196 -196 -196zM388 640
c0 68.483 55.517 124 124 124c68.483 0 124 -55.517 124 -124s-55.517 -124 -124 -124s-124 55.517 -124 124z" />
    <glyph glyph-name="compass" unicode="&#xe949;" 
d="M544.01 -64.004c-2.296 0 -4.622 0.25 -6.94 0.764c-14.648 3.25 -25.07 16.238 -25.07 31.24v480h-480c-15.002 0 -27.992 10.422 -31.24 25.07c-3.25 14.646 4.114 29.584 17.708 35.928l960 448c12.196 5.688 26.644 3.144 36.16 -6.372
c9.516 -9.514 12.06 -23.966 6.372 -36.16l-448 -960c-5.342 -11.44 -16.772 -18.47 -28.99 -18.47zM176.242 512h367.758c17.674 0 32 -14.328 32 -32v-367.758l349.79 749.546z" />
    <glyph glyph-name="compass2" unicode="&#xe94a;" 
d="M512 960c-282.77 0 -512 -229.23 -512 -512s229.23 -512 512 -512c282.77 0 512 229.23 512 512c0 282.77 -229.23 512 -512 512zM96 448c0 229.75 186.25 416 416 416c109.574 0 209.232 -42.386 283.534 -111.628l-411.534 -176.372l-176.372 -411.534
c-69.242 74.302 -111.628 173.96 -111.628 283.534zM585.166 374.834l-256.082 -109.75l109.75 256.082zM512 32c-109.574 0 -209.234 42.386 -283.532 111.628l411.532 176.372l176.372 411.532c69.242 -74.298 111.628 -173.958 111.628 -283.532
c0 -229.75 -186.25 -416 -416 -416z" />
    <glyph glyph-name="map" unicode="&#xe94b;" 
d="M0 768l320 128v-768l-320 -128v768zM384 928l320 -192v-736l-320 160v768zM768 736l256 192v-768l-256 -192v768z" />
    <glyph glyph-name="map2" unicode="&#xe94c;" 
d="M672 768l-320 128l-352 -128v-768l352 128l320 -128l352 128v768zM384 814.27l256 -102.4v-630.138l-256 102.398v630.14zM64 723.172l256 93.09v-631.8l-256 -93.088v631.798zM960 172.828l-256 -93.092v631.8l256 93.09v-631.798z" />
    <glyph glyph-name="history" unicode="&#xe94d;" horiz-adv-x="1088" 
d="M640 896c247.424 0 448 -200.576 448 -448s-200.576 -448 -448 -448v96c94.024 0 182.418 36.614 248.902 103.098c66.484 66.484 103.098 154.878 103.098 248.902c0 94.022 -36.614 182.418 -103.098 248.902s-154.878 103.098 -248.902 103.098
c-94.022 0 -182.418 -36.614 -248.902 -103.098c-51.14 -51.138 -84.582 -115.246 -97.306 -184.902h186.208l-224 -256l-224 256h164.57c31.06 217.102 217.738 384 443.43 384zM832 512v-128h-256v320h128v-192h128z" />
    <glyph glyph-name="clock" unicode="&#xe94e;" 
d="M658.744 210.744l-210.744 210.746v282.51h128v-229.49l173.256 -173.254zM512 960c-282.77 0 -512 -229.23 -512 -512s229.23 -512 512 -512c282.77 0 512 229.23 512 512c0 282.77 -229.23 512 -512 512zM512 64c-212.078 0 -384 171.922 -384 384
c0 212.078 171.922 384 384 384s384 -171.922 384 -384s-171.922 -384 -384 -384z" />
    <glyph glyph-name="clock2" unicode="&#xe94f;" 
d="M512 960c-282.77 0 -512 -229.23 -512 -512s229.23 -512 512 -512c282.77 0 512 229.23 512 512c0 282.77 -229.23 512 -512 512zM658.744 210.744l-210.744 210.746v282.51h128v-229.49l173.256 -173.254z" />
    <glyph glyph-name="alarm" unicode="&#xe950;" 
d="M512 832c-247.424 0 -448 -200.576 -448 -448s200.576 -448 448 -448s448 200.576 448 448c0 247.424 -200.576 448 -448 448zM512 24c-198.824 0 -360 161.178 -360 360c0 198.824 161.176 360 360 360c198.822 0 360 -161.176 360 -360
c0 -198.822 -161.178 -360 -360 -360zM934.784 672.826c16.042 28.052 25.216 60.542 25.216 95.174c0 106.04 -85.96 192 -192 192c-61.818 0 -116.802 -29.222 -151.92 -74.596c131.884 -27.236 245.206 -105.198 318.704 -212.578h-1.13687e-13zM407.92 885.404
c-35.116 45.374 -90.102 74.596 -151.92 74.596c-106.04 0 -192 -85.96 -192 -192c0 -34.632 9.174 -67.122 25.216 -95.174c73.5 107.38 186.822 185.342 318.704 212.578zM512 384v256h-64v-320h256v64h-192z" />
    <glyph glyph-name="bell" unicode="&#xe951;" 
d="M1025.5 160c0 288 -256 224 -256 448c0 18.56 -1.788 34.42 -5.048 47.928c-16.83 113.018 -92.156 203.72 -189.772 231.36c0.866 3.948 1.32 8.032 1.32 12.21c0 33.278 -28.8 60.502 -64 60.502s-64 -27.224 -64 -60.5c0 -4.18 0.456 -8.264 1.32 -12.21
c-109.47 -30.998 -190.914 -141.298 -193.254 -273.442c-0.04 -1.92 -0.066 -3.864 -0.066 -5.846c0 -224.002 -256 -160.002 -256 -448.002c0 -76.226 170.59 -139.996 398.97 -156.08c21.524 -40.404 64.056 -67.92 113.03 -67.92s91.508 27.516 113.03 67.92
c228.38 16.084 398.97 79.854 398.97 156.08c0 0.228 -0.026 0.456 -0.028 0.682zM826.246 105.904c-54.23 -14.47 -118.158 -24.876 -186.768 -30.648c-5.704 65.418 -60.582 116.744 -127.478 116.744s-121.774 -51.326 -127.478 -116.744
c-68.608 5.772 -132.538 16.178 -186.768 30.648c-74.63 19.914 -110.31 42.19 -123.368 54.096c13.058 11.906 48.738 34.182 123.368 54.096c86.772 23.152 198.372 35.904 314.246 35.904s227.474 -12.752 314.246 -35.904c74.63 -19.914 110.31 -42.19 123.368 -54.096
c-13.058 -11.906 -48.738 -34.182 -123.368 -54.096z" />
    <glyph glyph-name="stopwatch" unicode="&#xe952;" 
d="M512.002 766.788v65.212h128v64c0 35.346 -28.654 64 -64.002 64h-191.998c-35.346 0 -64 -28.654 -64 -64v-64h128v-65.212c-214.798 -16.338 -384 -195.802 -384 -414.788c0 -229.75 186.25 -416 416 -416c229.75 0 416 186.25 416 416
c0 218.984 -169.202 398.448 -384 414.788zM706.276 125.726c-60.442 -60.44 -140.798 -93.726 -226.274 -93.726s-165.834 33.286 -226.274 93.726s-93.726 140.8 -93.726 226.274s33.286 165.834 93.726 226.274c58.04 58.038 134.448 91.018 216.114 93.548
l-21.678 -314.02c-1.86 -26.29 12.464 -37.802 31.836 -37.802s33.698 11.512 31.836 37.802l-21.676 314.022c81.666 -2.532 158.076 -35.512 216.116 -93.55c60.44 -60.44 93.726 -140.8 93.726 -226.274s-33.286 -165.834 -93.726 -226.274z" />
    <glyph glyph-name="calendar" unicode="&#xe953;" 
d="M320 576h128v-128h-128v128zM512 576h128v-128h-128v128zM704 576h128v-128h-128v128zM128 192h128v-128h-128v128zM320 192h128v-128h-128v128zM512 192h128v-128h-128v128zM320 384h128v-128h-128v128zM512 384h128v-128h-128v128zM704 384h128v-128h-128v128zM128 384
h128v-128h-128v128zM832 960v-64h-128v64h-448v-64h-128v64h-128v-1024h960v1024h-128zM896 0h-832v704h832v-704z" />
    <glyph glyph-name="printer" unicode="&#xe954;" 
d="M256 896h512v-128h-512v128zM960 704h-896c-35.2 0 -64 -28.8 -64 -64v-320c0 -35.2 28.794 -64 64 -64h192v-256h512v256h192c35.2 0 64 28.8 64 64v320c0 35.2 -28.8 64 -64 64zM128 512c-35.346 0 -64 28.654 -64 64s28.654 64 64 64s64 -28.654 64 -64
s-28.652 -64 -64 -64zM704 64h-384v320h384v-320z" />
    <glyph glyph-name="keyboard" unicode="&#xe955;" horiz-adv-x="1152" 
d="M1088 832h-1024c-35.2 0 -64 -28.8 -64 -64v-640c0 -35.2 28.8 -64 64 -64h1024c35.2 0 64 28.8 64 64v640c0 35.2 -28.8 64 -64 64zM640 704h128v-128h-128v128zM832 512v-128h-128v128h128zM448 704h128v-128h-128v128zM640 512v-128h-128v128h128zM256 704h128v-128
h-128v128zM448 512v-128h-128v128h128zM128 704h64v-128h-64v128zM128 512h128v-128h-128v128zM192 192h-64v128h64v-128zM768 192h-512v128h512v-128zM1024 192h-192v128h192v-128zM1024 384h-128v128h128v-128zM1024 576h-192v128h192v-128z" />
    <glyph glyph-name="display" unicode="&#xe956;" 
d="M0 896v-640h1024v640h-1024zM960 320h-896v512h896v-512zM672 192h-320l-32 -128l-64 -64h512l-64 64z" />
    <glyph glyph-name="laptop" unicode="&#xe957;" 
d="M896 256v512c0 35.2 -28.8 64 -64 64h-640c-35.2 0 -64 -28.8 -64 -64v-512h-128v-192h1024v192h-128zM640 128h-256v64h256v-64zM832 256h-640v511.886c0.034 0.04 0.076 0.082 0.114 0.114h639.77c0.04 -0.034 0.082 -0.076 0.116 -0.116v-511.884z" />
    <glyph glyph-name="mobile" unicode="&#xe958;" 
d="M736 960h-448c-52.8 0 -96 -43.2 -96 -96v-832c0 -52.8 43.2 -96 96 -96h448c52.8 0 96 43.2 96 96v832c0 52.8 -43.2 96 -96 96zM384 912h256v-32h-256v32zM512 0c-35.346 0 -64 28.654 -64 64c0 35.346 28.654 64 64 64s64 -28.654 64 -64s-28.654 -64 -64 -64z
M768 192h-512v640h512v-640z" />
    <glyph glyph-name="mobile2" unicode="&#xe959;" 
d="M768 960h-576c-35.2 0 -64 -28.798 -64 -64v-896c0 -35.2 28.798 -64 64 -64h576c35.2 0 64 28.8 64 64v896c0 35.202 -28.8 64 -64 64zM480 -17.782c-27.492 0 -49.782 22.29 -49.782 49.782c0 27.492 22.29 49.782 49.782 49.782s49.782 -22.29 49.782 -49.782
s-22.29 -49.782 -49.782 -49.782zM768 128h-576v704h576v-704z" />
    <glyph glyph-name="tablet" unicode="&#xe95a;" 
d="M800 960h-640c-52.8 0 -96 -43.2 -96 -96v-832c0 -52.8 43.2 -96 96 -96h640c52.8 0 96 43.2 96 96v832c0 52.8 -43.2 96 -96 96zM480 -32c-17.672 0 -32 14.326 -32 32s14.328 32 32 32s32 -14.326 32 -32s-14.328 -32 -32 -32zM768 64h-576v768h576v-768z" />
    <glyph glyph-name="tv" unicode="&#xe95b;" 
d="M981.188 671.892c-88.808 12.768 -183.382 22.016 -282.076 27.22l164.888 164.888l-64 64l-224.558 -224.556c-21.006 0.368 -42.156 0.556 -63.442 0.556v0l-256 256l-64 -64l194.196 -194.196c-120.922 -4.242 -236.338 -14.524 -343.386 -29.912
c-27.532 -107.726 -42.81 -226.752 -42.81 -351.892s15.278 -244.166 42.804 -351.89c143.642 -20.652 302.34 -32.11 469.196 -32.11s325.55 11.458 469.188 32.11c27.534 107.724 42.812 226.75 42.812 351.89s-15.278 244.166 -42.812 351.892zM863.892 85.406
c-107.73 -13.766 -226.75 -21.406 -351.892 -21.406s-244.166 7.64 -351.892 21.406c-20.648 71.816 -32.108 151.166 -32.108 234.594c0 83.43 11.458 162.78 32.108 234.596c107.726 13.766 226.75 21.404 351.892 21.404c125.136 0 244.162 -7.638 351.886 -21.404
c20.656 -71.816 32.114 -151.166 32.114 -234.596c0 -83.428 -11.458 -162.778 -32.108 -234.594z" />
    <glyph glyph-name="drawer" unicode="&#xe95c;" 
d="M1016.99 307.99l-256 320c-6.074 7.592 -15.266 12.01 -24.988 12.01h-448c-9.72 0 -18.916 -4.418 -24.988 -12.01l-256 -320c-4.538 -5.674 -7.012 -12.724 -7.012 -19.99v-288c0 -35.346 28.654 -64 64 -64h896c35.348 0 64 28.654 64 64v288
c0 7.266 -2.472 14.316 -7.012 19.99zM960 256h-224l-128 -128h-192l-128 128h-224v20.776l239.38 299.224h417.24l239.38 -299.224v-20.776zM736 448h-448c-17.672 0 -32 14.328 -32 32s14.328 32 32 32h448c17.674 0 32 -14.328 32 -32s-14.326 -32 -32 -32zM800 320h-576
c-17.672 0 -32 14.326 -32 32s14.328 32 32 32h576c17.674 0 32 -14.326 32 -32s-14.326 -32 -32 -32z" />
    <glyph glyph-name="drawer2" unicode="&#xe95d;" 
d="M1016.99 307.99l-256 320c-6.074 7.592 -15.266 12.01 -24.988 12.01h-448c-9.72 0 -18.916 -4.418 -24.988 -12.01l-256 -320c-4.538 -5.674 -7.012 -12.724 -7.012 -19.99v-288c0 -35.346 28.654 -64 64 -64h896c35.348 0 64 28.654 64 64v288
c0 7.266 -2.472 14.316 -7.012 19.99zM960 256h-224l-128 -128h-192l-128 128h-224v20.776l239.38 299.224h417.24l239.38 -299.224v-20.776z" />
    <glyph glyph-name="box-add" unicode="&#xe95e;" 
d="M832 896h-640l-192 -192v-672c0 -17.674 14.326 -32 32 -32h960c17.672 0 32 14.326 32 32v672zM512 128l-320 256h192v192h256v-192h192zM154.51 768l64 64h586.978l64 -64h-714.978z" />
    <glyph glyph-name="box-remove" unicode="&#xe95f;" 
d="M832 896h-640l-192 -192v-672c0 -17.674 14.326 -32 32 -32h960c17.672 0 32 14.326 32 32v672zM640 320v-192h-256v192h-192l320 256l320 -256h-192zM154.51 768l64 64h586.976l64 -64h-714.976z" />
    <glyph glyph-name="download" unicode="&#xe960;" 
d="M512 384l256 256h-192v256h-128v-256h-192zM744.726 488.728l-71.74 -71.742l260.08 -96.986l-421.066 -157.018l-421.066 157.018l260.08 96.986l-71.742 71.742l-279.272 -104.728v-256l512 -192l512 192v256z" />
    <glyph glyph-name="upload" unicode="&#xe961;" 
d="M448 384h128v256h192l-256 256l-256 -256h192v-256zM640 528v-98.712l293.066 -109.288l-421.066 -157.018l-421.066 157.018l293.066 109.288v98.712l-384 -144v-256l512 -192l512 192v256z" />
    <glyph glyph-name="floppy-disk" unicode="&#xe962;" 
d="M896 960h-896v-1024h1024v896zM512 832h128v-256h-128v256zM896 64h-768v768h64v-320h576v320h74.978l53.022 -53.018v-714.982z" />
    <glyph glyph-name="drive" unicode="&#xe963;" 
d="M192 64h640c106.038 0 192 85.96 192 192h-1024c0 -106.04 85.962 -192 192 -192zM832 192h64v-64h-64v64zM960 832h-896l-64 -512h1024z" />
    <glyph glyph-name="database" unicode="&#xe964;" 
d="M512 960c-282.77 0 -512 -71.634 -512 -160v-128c0 -88.366 229.23 -160 512 -160c282.77 0 512 71.634 512 160v128c0 88.366 -229.23 160 -512 160zM512 416c-282.77 0 -512 71.634 -512 160v-192c0 -88.366 229.23 -160 512 -160c282.77 0 512 71.634 512 160v192
c0 -88.366 -229.23 -160 -512 -160zM512 128c-282.77 0 -512 71.634 -512 160v-192c0 -88.366 229.23 -160 512 -160c282.77 0 512 71.634 512 160v192c0 -88.366 -229.23 -160 -512 -160z" />
    <glyph glyph-name="undo" unicode="&#xe965;" 
d="M512 896c-141.384 0 -269.376 -57.32 -362.032 -149.978l-149.968 149.978v-384h384l-143.532 143.522c69.496 69.492 165.492 112.478 271.532 112.478c212.068 0 384 -171.924 384 -384c0 -114.696 -50.292 -217.636 -130.018 -288l84.666 -96
c106.302 93.816 173.352 231.076 173.352 384c0 282.77 -229.23 512 -512 512z" />
    <glyph glyph-name="redo" unicode="&#xe966;" 
d="M0 384c0 -152.924 67.048 -290.184 173.35 -384l84.666 96c-79.726 70.364 -130.016 173.304 -130.016 288c0 212.076 171.93 384 384 384c106.042 0 202.038 -42.986 271.53 -112.478l-143.53 -143.522h384v384l-149.97 -149.978
c-92.654 92.658 -220.644 149.978 -362.03 149.978c-282.77 0 -512 -229.23 -512 -512z" />
    <glyph glyph-name="undo2" unicode="&#xe967;" 
d="M761.862 -64c113.726 206.032 132.888 520.306 -313.862 509.824v-253.824l-384 384l384 384v-248.372c534.962 13.942 594.57 -472.214 313.862 -775.628z" />
    <glyph glyph-name="redo2" unicode="&#xe968;" 
d="M576 711.628v248.372l384 -384l-384 -384v253.824c-446.75 10.482 -427.588 -303.792 -313.86 -509.824c-280.712 303.414 -221.1 789.57 313.86 775.628z" />
    <glyph glyph-name="forward" unicode="&#xe969;" 
d="M262.14 960c-113.728 -206.032 -132.89 -520.304 313.86 -509.824v253.824l384 -384l-384 -384v248.372c-534.96 -13.942 -594.572 472.214 -313.86 775.628z" />
    <glyph glyph-name="reply" unicode="&#xe96a;" 
d="M448 184.372v-248.372l-384 384l384 384v-253.824c446.75 -10.48 427.588 303.792 313.862 509.824c280.71 -303.414 221.1 -789.57 -313.862 -775.628z" />
    <glyph glyph-name="bubble" unicode="&#xe96b;" 
d="M512 896c282.77 0 512 -186.25 512 -416c0 -229.752 -229.23 -416 -512 -416c-27.156 0 -53.81 1.734 -79.824 5.044c-109.978 -109.978 -241.25 -129.7 -368.176 -132.596v26.916c68.536 33.578 128 94.74 128 164.636c0 9.754 -0.758 19.33 -2.164 28.696
c-115.796 76.264 -189.836 192.754 -189.836 323.304c0 229.75 229.23 416 512 416z" />
    <glyph glyph-name="bubbles" unicode="&#xe96c;" horiz-adv-x="1152" 
d="M1088 58.834c0 -45.5 26.028 -84.908 64 -104.184v-15.938c-10.626 -1.454 -21.472 -2.224 -32.5 -2.224c-68.008 0 -129.348 28.528 -172.722 74.264c-26.222 -6.982 -54.002 -10.752 -82.778 -10.752c-159.058 0 -288 114.616 -288 256c0 141.384 128.942 256 288 256
s288 -114.616 288 -256c0 -55.348 -19.764 -106.592 -53.356 -148.466c-6.824 -14.824 -10.644 -31.312 -10.644 -48.7zM512 960c278.458 0 504.992 -180.614 511.836 -405.52c-49.182 21.92 -103.586 33.52 -159.836 33.52c-95.56 0 -185.816 -33.446 -254.138 -94.178
c-70.846 -62.972 -109.862 -147.434 -109.862 -237.822c0 -44.672 9.544 -87.888 27.736 -127.788c-5.228 -0.126 -10.468 -0.212 -15.736 -0.212c-27.156 0 -53.81 1.734 -79.824 5.044c-109.978 -109.978 -241.25 -129.7 -368.176 -132.596v26.916
c68.536 33.578 128 94.74 128 164.636c0 9.754 -0.758 19.33 -2.164 28.696c-115.796 76.264 -189.836 192.754 -189.836 323.304c0 229.75 229.23 416 512 416z" />
    <glyph glyph-name="bubbles2" unicode="&#xe96d;" horiz-adv-x="1152" 
d="M480 960v0c265.096 0 480 -173.914 480 -388.448s-214.904 -388.448 -480 -388.448c-25.458 0 -50.446 1.62 -74.834 4.71c-103.106 -102.694 -222.172 -121.108 -341.166 -123.814v25.134c64.252 31.354 116 88.466 116 153.734c0 9.106 -0.712 18.048 -2.03 26.794
c-108.558 71.214 -177.97 179.988 -177.97 301.89c0 214.534 214.904 388.448 480 388.448zM996 89.314c0 -55.942 36.314 -104.898 92 -131.772v-21.542c-103.126 2.318 -197.786 18.102 -287.142 106.126c-21.14 -2.65 -42.794 -4.04 -64.858 -4.04
c-95.47 0 -183.408 25.758 -253.614 69.04c144.674 0.506 281.26 46.854 384.834 130.672c52.208 42.252 93.394 91.826 122.414 147.348c30.766 58.866 46.366 121.582 46.366 186.406c0 10.448 -0.45 20.836 -1.258 31.168
c72.57 -59.934 117.258 -141.622 117.258 -231.676c0 -104.488 -60.158 -197.722 -154.24 -258.764c-1.142 -7.496 -1.76 -15.16 -1.76 -22.966z" />
    <glyph glyph-name="bubble2" unicode="&#xe96e;" 
d="M512 768c-54.932 0 -107.988 -8.662 -157.694 -25.742c-46.712 -16.054 -88.306 -38.744 -123.628 -67.444c-66.214 -53.798 -102.678 -122.984 -102.678 -194.814c0 -40.298 11.188 -79.378 33.252 -116.152c22.752 -37.92 56.982 -72.586 98.988 -100.252
c30.356 -19.992 50.78 -51.948 56.176 -87.894c1.8 -11.984 2.928 -24.088 3.37 -36.124c7.47 6.194 14.75 12.846 21.88 19.976c24.154 24.152 56.78 37.49 90.502 37.49c5.368 0 10.762 -0.336 16.156 -1.024c20.974 -2.666 42.398 -4.02 63.676 -4.02
c54.934 0 107.988 8.66 157.694 25.742c46.712 16.054 88.306 38.744 123.628 67.444c66.214 53.796 102.678 122.984 102.678 194.814s-36.464 141.016 -102.678 194.814c-35.322 28.698 -76.916 51.39 -123.628 67.444c-49.706 17.08 -102.76 25.742 -157.694 25.742z
M512 896v0c282.77 0 512 -186.25 512 -416c0 -229.752 -229.23 -416 -512 -416c-27.156 0 -53.81 1.734 -79.824 5.044c-109.978 -109.978 -241.25 -129.7 -368.176 -132.596v26.916c68.536 33.578 128 94.74 128 164.636c0 9.754 -0.758 19.33 -2.164 28.696
c-115.796 76.264 -189.836 192.754 -189.836 323.304c0 229.75 229.23 416 512 416z" />
    <glyph glyph-name="bubbles3" unicode="&#xe96f;" horiz-adv-x="1152" 
d="M1088 58.834c0 -45.5 26.028 -84.908 64 -104.184v-15.938c-10.626 -1.454 -21.472 -2.224 -32.5 -2.224c-68.008 0 -129.348 28.528 -172.722 74.264c-26.222 -6.982 -54.002 -10.752 -82.778 -10.752c-159.058 0 -288 114.616 -288 256c0 141.384 128.942 256 288 256
s288 -114.616 288 -256c0 -55.348 -19.764 -106.592 -53.356 -148.466c-6.824 -14.824 -10.644 -31.312 -10.644 -48.7zM230.678 738.814c-66.214 -53.798 -102.678 -122.984 -102.678 -194.814c0 -40.298 11.188 -79.378 33.252 -116.15
c22.752 -37.92 56.982 -72.586 98.988 -100.252c30.356 -19.992 50.78 -51.948 56.176 -87.894c1.8 -11.984 2.928 -24.088 3.37 -36.124c7.47 6.194 14.75 12.846 21.88 19.976c24.154 24.152 56.78 37.49 90.502 37.49c5.368 0 10.762 -0.336 16.156 -1.024
c20.948 -2.662 42.344 -4.016 63.594 -4.02v-128c-27.128 0.002 -53.754 1.738 -79.742 5.042c-109.978 -109.978 -241.25 -129.7 -368.176 -132.596v26.916c68.536 33.578 128 94.74 128 164.636c0 9.754 -0.758 19.33 -2.164 28.696
c-115.796 76.264 -189.836 192.754 -189.836 323.304c0 229.75 229.23 416 512 416c278.458 0 504.992 -180.614 511.836 -405.52c-41.096 18.316 -85.84 29.422 -132.262 32.578c-11.53 56.068 -45.402 108.816 -98.252 151.756
c-35.322 28.698 -76.916 51.39 -123.628 67.444c-49.706 17.08 -102.76 25.742 -157.694 25.742c-54.932 0 -107.988 -8.662 -157.694 -25.742c-46.712 -16.054 -88.306 -38.744 -123.628 -67.444z" />
    <glyph glyph-name="bubbles4" unicode="&#xe970;" horiz-adv-x="1152" 
d="M480 832c-50.666 0 -99.582 -7.95 -145.386 -23.628c-42.924 -14.694 -81.114 -35.436 -113.502 -61.646c-60.044 -48.59 -93.112 -110.802 -93.112 -175.174c0 -35.99 10.066 -70.948 29.92 -103.898c20.686 -34.34 51.898 -65.794 90.26 -90.958
c30.44 -19.968 50.936 -51.952 56.362 -87.95c0.902 -5.99 1.63 -12.006 2.18 -18.032c2.722 2.52 5.424 5.114 8.114 7.794c24.138 24.04 56.688 37.312 90.322 37.312c5.348 0 10.718 -0.336 16.094 -1.018c19.36 -2.452 39.124 -3.696 58.748 -3.696
c50.666 0 99.58 7.948 145.384 23.628c42.926 14.692 81.116 35.434 113.504 61.644c60.046 48.59 93.112 110.802 93.112 175.174s-33.066 126.582 -93.112 175.174c-32.388 26.212 -70.578 46.952 -113.504 61.646c-45.804 15.678 -94.718 23.628 -145.384 23.628z
M480 960v0c265.096 0 480 -173.914 480 -388.448s-214.904 -388.448 -480 -388.448c-25.458 0 -50.446 1.62 -74.834 4.71c-103.106 -102.694 -222.172 -121.108 -341.166 -123.814v25.134c64.252 31.354 116 88.466 116 153.734c0 9.106 -0.712 18.048 -2.03 26.794
c-108.558 71.214 -177.97 179.988 -177.97 301.89c0 214.534 214.904 388.448 480 388.448zM996 89.314c0 -55.942 36.314 -104.898 92 -131.772v-21.542c-103.126 2.318 -197.786 18.102 -287.142 106.126c-21.14 -2.65 -42.794 -4.04 -64.858 -4.04
c-95.47 0 -183.408 25.758 -253.614 69.04c144.674 0.506 281.26 46.854 384.834 130.672c52.208 42.252 93.394 91.826 122.414 147.348c30.766 58.866 46.366 121.582 46.366 186.406c0 10.448 -0.45 20.836 -1.258 31.168
c72.57 -59.934 117.258 -141.622 117.258 -231.676c0 -104.488 -60.158 -197.722 -154.24 -258.764c-1.142 -7.496 -1.76 -15.16 -1.76 -22.966z" />
    <glyph glyph-name="user" unicode="&#xe971;" 
d="M576 253.388v52.78c70.498 39.728 128 138.772 128 237.832c0 159.058 0 288 -192 288s-192 -128.942 -192 -288c0 -99.06 57.502 -198.104 128 -237.832v-52.78c-217.102 -17.748 -384 -124.42 -384 -253.388h896c0 128.968 -166.898 235.64 -384 253.388z" />
    <glyph glyph-name="users" unicode="&#xe972;" horiz-adv-x="1152" 
d="M768 189.388v52.78c70.498 39.728 128 138.772 128 237.832c0 159.058 0 288 -192 288s-192 -128.942 -192 -288c0 -99.06 57.502 -198.104 128 -237.832v-52.78c-217.102 -17.748 -384 -124.42 -384 -253.388h896c0 128.968 -166.898 235.64 -384 253.388z
M327.196 164.672c55.31 36.15 124.08 63.636 199.788 80.414c-15.054 17.784 -28.708 37.622 -40.492 59.02c-30.414 55.234 -46.492 116.058 -46.492 175.894c0 86.042 0 167.31 30.6 233.762c29.706 64.504 83.128 104.496 159.222 119.488
c-16.914 76.48 -61.94 126.75 -181.822 126.75c-192 0 -192 -128.942 -192 -288c0 -99.06 57.502 -198.104 128 -237.832v-52.78c-217.102 -17.748 -384 -124.42 -384 -253.388h279.006c14.518 12.91 30.596 25.172 48.19 36.672z" />
    <glyph glyph-name="user-plus" unicode="&#xe973;" 
d="M384 224c0 151.234 95.874 280.486 230.032 330.2c16.28 36.538 25.968 77.164 25.968 117.8c0 159.058 0 288 -192 288s-192 -128.942 -192 -288c0 -99.06 57.502 -198.104 128 -237.832v-52.78c-217.102 -17.748 -384 -124.42 -384 -253.388h397.306
c-8.664 30.53 -13.306 62.732 -13.306 96zM736 512c-159.058 0 -288 -128.942 -288 -288s128.942 -288 288 -288c159.056 0 288 128.942 288 288s-128.942 288 -288 288zM896 192h-128v-128h-64v128h-128v64h128v128h64v-128h128v-64z" />
    <glyph glyph-name="user-minus" unicode="&#xe974;" 
d="M384 224c0 151.234 95.874 280.486 230.032 330.2c16.28 36.538 25.968 77.164 25.968 117.8c0 159.058 0 288 -192 288s-192 -128.942 -192 -288c0 -99.06 57.502 -198.104 128 -237.832v-52.78c-217.102 -17.748 -384 -124.42 -384 -253.388h397.306
c-8.664 30.53 -13.306 62.732 -13.306 96zM736 512c-159.058 0 -288 -128.942 -288 -288s128.942 -288 288 -288c159.056 0 288 128.942 288 288s-128.942 288 -288 288zM896 192h-320v64h320v-64z" />
    <glyph glyph-name="user-check" unicode="&#xe975;" 
d="M960 352l-288 -288l-96 96l-64 -64l160 -160l352 352zM448 192h320v115.128c-67.22 39.2 -156.308 66.11 -256 74.26v52.78c70.498 39.728 128 138.772 128 237.832c0 159.058 0 288 -192 288s-192 -128.942 -192 -288c0 -99.06 57.502 -198.104 128 -237.832v-52.78
c-217.102 -17.748 -384 -124.42 -384 -253.388h448v64z" />
    <glyph glyph-name="user-tie" unicode="&#xe976;" 
d="M320 768c0 106.039 85.961 192 192 192s192 -85.961 192 -192s-85.961 -192 -192 -192s-192 85.961 -192 192zM768.078 512h-35.424l-199.104 -404.244l74.45 372.244l-96 96l-96 -96l74.45 -372.244l-199.102 404.244h-35.424
c-127.924 0 -127.924 -85.986 -127.924 -192v-320h768v320c0 106.014 0 192 -127.922 192z" />
    <glyph glyph-name="quotes-left" unicode="&#xe977;" 
d="M225 512c123.712 0 224 -100.29 224 -224c0 -123.712 -100.288 -224 -224 -224s-224 100.288 -224 224l-1 32c0 247.424 200.576 448 448 448v-128c-85.474 0 -165.834 -33.286 -226.274 -93.726c-11.634 -11.636 -22.252 -24.016 -31.83 -37.02
c11.438 1.8 23.16 2.746 35.104 2.746zM801 512c123.71 0 224 -100.29 224 -224c0 -123.712 -100.29 -224 -224 -224s-224 100.288 -224 224l-1 32c0 247.424 200.576 448 448 448v-128c-85.474 0 -165.834 -33.286 -226.274 -93.726
c-11.636 -11.636 -22.254 -24.016 -31.832 -37.02c11.44 1.8 23.16 2.746 35.106 2.746z" />
    <glyph glyph-name="quotes-right" unicode="&#xe978;" 
d="M800 320c-123.712 0 -224 100.29 -224 224c0 123.712 100.288 224 224 224s224 -100.288 224 -224l1 -32c0 -247.424 -200.576 -448 -448 -448v128c85.474 0 165.834 33.286 226.274 93.726c11.634 11.636 22.252 24.016 31.83 37.02
c-11.438 -1.8 -23.16 -2.746 -35.104 -2.746zM224 320c-123.71 0 -224 100.29 -224 224c0 123.712 100.29 224 224 224c123.71 0 224 -100.288 224 -224l1 -32c0 -247.424 -200.576 -448 -448 -448v128c85.474 0 165.834 33.286 226.274 93.726
c11.636 11.636 22.254 24.016 31.832 37.02c-11.44 -1.8 -23.16 -2.746 -35.106 -2.746z" />
    <glyph glyph-name="hour-glass" unicode="&#xe979;" 
d="M728.992 448c137.754 87.334 231.008 255.208 231.008 448c0 21.676 -1.192 43.034 -3.478 64h-889.042c-2.29 -20.968 -3.48 -42.326 -3.48 -64c0 -192.792 93.254 -360.666 231.006 -448c-137.752 -87.334 -231.006 -255.208 -231.006 -448
c0 -21.676 1.19 -43.034 3.478 -64h889.042c2.288 20.966 3.478 42.324 3.478 64c0.002 192.792 -93.252 360.666 -231.006 448zM160 0c0 186.912 80.162 345.414 224 397.708v100.586c-143.838 52.29 -224 210.792 -224 397.706v0h704
c0 -186.914 -80.162 -345.416 -224 -397.706v-100.586c143.838 -52.294 224 -210.796 224 -397.708zM619.626 290.406c-71.654 40.644 -75.608 93.368 -75.626 125.366v64.228c0 31.994 3.804 84.914 75.744 125.664c38.504 22.364 71.808 56.348 97.048 98.336h-409.582
c25.266 -42.032 58.612 -76.042 97.166 -98.406c71.654 -40.644 75.606 -93.366 75.626 -125.366v-64.228c0 -31.992 -3.804 -84.914 -75.744 -125.664c-72.622 -42.18 -126.738 -125.684 -143.09 -226.336h501.67c-16.364 100.708 -70.53 184.248 -143.212 226.406z" />
    <glyph glyph-name="spinner" unicode="&#xe97a;" 
d="M384 832c0 70.692 57.308 128 128 128s128 -57.308 128 -128s-57.308 -128 -128 -128s-128 57.308 -128 128zM655.53 719.53c0 70.692 57.308 128 128 128s128 -57.308 128 -128s-57.308 -128 -128 -128s-128 57.308 -128 128zM832 448c0 35.346 28.654 64 64 64
s64 -28.654 64 -64s-28.654 -64 -64 -64s-64 28.654 -64 64zM719.53 176.47c0 35.346 28.654 64 64 64s64 -28.654 64 -64s-28.654 -64 -64 -64s-64 28.654 -64 64zM448.002 64v0c0 35.346 28.654 64 64 64c35.346 0 64 -28.654 64 -64v0c0 -35.346 -28.654 -64 -64 -64
s-64 28.654 -64 64zM176.472 176.47v0c0 35.346 28.654 64 64 64c35.346 0 64 -28.654 64 -64v0c0 -35.346 -28.654 -64 -64 -64s-64 28.654 -64 64zM144.472 719.53v0c0 53.019 42.981 96 96 96c53.019 0 96 -42.981 96 -96v0c0 -53.019 -42.981 -96 -96 -96
s-96 42.981 -96 96zM56 448c0 39.765 32.235 72 72 72c39.765 0 72 -32.235 72 -72s-32.235 -72 -72 -72s-72 32.235 -72 72z" />
    <glyph glyph-name="spinner2" unicode="&#xe97b;" 
d="M1024 448c-1.278 66.862 -15.784 133.516 -42.576 194.462c-26.704 61 -65.462 116.258 -113.042 161.92c-47.552 45.696 -103.944 81.82 -164.984 105.652c-61.004 23.924 -126.596 35.352 -191.398 33.966c-64.81 -1.282 -129.332 -15.374 -188.334 -41.356
c-59.048 -25.896 -112.542 -63.47 -156.734 -109.576c-44.224 -46.082 -79.16 -100.708 -102.186 -159.798c-23.114 -59.062 -34.128 -122.52 -32.746 -185.27c1.286 -62.76 14.964 -125.148 40.134 -182.206c25.088 -57.1 61.476 -108.828 106.11 -151.548
c44.61 -42.754 97.472 -76.504 154.614 -98.72c57.118 -22.304 118.446 -32.902 179.142 -31.526c60.708 1.29 120.962 14.554 176.076 38.914c55.15 24.282 105.116 59.48 146.366 102.644c41.282 43.14 73.844 94.236 95.254 149.43
c13.034 33.458 21.88 68.4 26.542 103.798c1.246 -0.072 2.498 -0.12 3.762 -0.12c35.346 0 64 28.652 64 64c0 1.796 -0.094 3.572 -0.238 5.332h0.238zM922.306 278.052c-23.472 -53.202 -57.484 -101.4 -99.178 -141.18c-41.67 -39.81 -91 -71.186 -144.244 -91.79
c-53.228 -20.678 -110.29 -30.452 -166.884 -29.082c-56.604 1.298 -112.596 13.736 -163.82 36.474c-51.25 22.666 -97.684 55.49 -135.994 95.712c-38.338 40.198 -68.528 87.764 -88.322 139.058c-19.87 51.284 -29.228 106.214 -27.864 160.756
c1.302 54.552 13.328 108.412 35.254 157.69c21.858 49.3 53.498 93.97 92.246 130.81c38.73 36.868 84.53 65.87 133.874 84.856c49.338 19.06 102.136 28.006 154.626 26.644c52.5 -1.306 104.228 -12.918 151.562 -34.034c47.352 -21.05 90.256 -51.502 125.624 -88.782
c35.396 -37.258 63.21 -81.294 81.39 -128.688c18.248 -47.392 26.782 -98.058 25.424 -148.496h0.238c-0.144 -1.76 -0.238 -3.536 -0.238 -5.332c0 -33.012 24.992 -60.174 57.086 -63.624c-6.224 -34.822 -16.53 -68.818 -30.78 -100.992z" />
    <glyph glyph-name="spinner3" unicode="&#xe97c;" 
d="M512 656.904c-32.964 0 -59.686 26.724 -59.686 59.686v179.06c0 32.964 26.722 59.686 59.686 59.686c32.962 0 59.688 -26.722 59.688 -59.686v-179.06c0 -32.964 -26.726 -59.686 -59.688 -59.686zM512 -36.956c-20.602 0 -37.304 16.702 -37.304 37.304v179.06
c0 20.602 16.702 37.304 37.304 37.304c20.604 0 37.304 -16.704 37.304 -37.304v-179.06c0 -20.602 -16.7 -37.304 -37.304 -37.304zM377.756 624.64c-19.34 0 -38.146 10.034 -48.512 27.988l-89.53 155.07c-15.452 26.764 -6.282 60.986 20.482 76.438
c26.762 15.45 60.986 6.284 76.438 -20.482l89.53 -155.072c15.452 -26.764 6.282 -60.986 -20.482 -76.438c-8.81 -5.084 -18.432 -7.504 -27.926 -7.504zM735.856 26.744c-11.602 0 -22.886 6.022 -29.108 16.792l-89.53 155.07c-9.27 16.056 -3.77 36.592 12.29 45.864
c16.056 9.264 36.59 3.77 45.864 -12.292l89.532 -155.068c9.27 -16.058 3.768 -36.592 -12.292 -45.864c-5.286 -3.048 -11.06 -4.502 -16.756 -4.502zM279.344 530.06c-8.86 0 -17.838 2.256 -26.064 7.006l-155.072 89.53c-24.978 14.422 -33.538 46.362 -19.116 71.342
c14.42 24.978 46.364 33.538 71.342 19.116l155.07 -89.53c24.98 -14.422 33.538 -46.362 19.116 -71.34c-9.668 -16.756 -27.226 -26.124 -45.276 -26.124zM899.648 194.326c-5.064 0 -10.196 1.29 -14.894 4.004l-155.068 89.53
c-14.274 8.24 -19.164 26.494 -10.924 40.768c8.242 14.276 26.496 19.166 40.766 10.924l155.07 -89.532c14.274 -8.24 19.164 -26.492 10.924 -40.766c-5.53 -9.574 -15.562 -14.928 -25.874 -14.928zM243.41 399.504h-179.06c-26.784 0 -48.496 21.712 -48.496 48.496
s21.712 48.496 48.496 48.496h179.06c26.784 0 48.496 -21.712 48.496 -48.496s-21.712 -48.496 -48.496 -48.496zM959.65 418.156c-0.002 0 0 0 0 0h-179.06c-16.482 0.002 -29.844 13.364 -29.844 29.844s13.364 29.844 29.844 29.844c0.002 0 0 0 0 0h179.06
c16.482 0 29.844 -13.362 29.844 -29.844c0 -16.48 -13.364 -29.844 -29.844 -29.844zM124.366 179.402c-15.472 0 -30.518 8.028 -38.81 22.39c-12.362 21.41 -5.026 48.79 16.384 61.148l155.072 89.532c21.41 12.368 48.79 5.028 61.15 -16.384
c12.362 -21.412 5.026 -48.79 -16.384 -61.15l-155.072 -89.53c-7.05 -4.07 -14.748 -6.006 -22.34 -6.006zM744.632 552.448c-10.314 0 -20.346 5.352 -25.874 14.926c-8.24 14.274 -3.35 32.526 10.924 40.768l155.07 89.528c14.272 8.236 32.526 3.352 40.768 -10.922
c8.24 -14.274 3.35 -32.526 -10.924 -40.768l-155.07 -89.528c-4.7 -2.714 -9.83 -4.004 -14.894 -4.004zM288.136 19.284c-6.962 0 -14.016 1.774 -20.48 5.504c-19.626 11.332 -26.35 36.428 -15.02 56.054l89.53 155.07c11.33 19.628 36.426 26.352 56.054 15.022
c19.626 -11.332 26.35 -36.43 15.02 -56.054l-89.53 -155.072c-7.598 -13.166 -21.392 -20.524 -35.574 -20.524zM646.266 650.758c-5.062 0 -10.196 1.29 -14.894 4.002c-14.274 8.242 -19.164 26.494 -10.924 40.766l89.534 155.07
c8.24 14.274 26.492 19.166 40.766 10.922c14.274 -8.242 19.164 -26.494 10.924 -40.766l-89.532 -155.07c-5.53 -9.57 -15.56 -14.924 -25.874 -14.924z" />
    <glyph glyph-name="spinner4" unicode="&#xe97d;" 
d="M192 448c0 12.18 0.704 24.196 2.03 36.022l-184.98 60.104c-5.916 -31.14 -9.05 -63.264 -9.05 -96.126c0 -147.23 62.166 -279.922 161.654 -373.324l114.284 157.296c-52.124 56.926 -83.938 132.758 -83.938 216.028zM832 448
c0 -83.268 -31.812 -159.102 -83.938 -216.028l114.284 -157.296c99.488 93.402 161.654 226.094 161.654 373.324c0 32.862 -3.132 64.986 -9.048 96.126l-184.98 -60.104c1.324 -11.828 2.028 -23.842 2.028 -36.022zM576 761.592
c91.934 -18.662 169.544 -76.742 214.45 -155.826l184.978 60.102c-73.196 155.42 -222.24 268.06 -399.428 290.156zM233.55 605.768c44.906 79.084 122.516 137.164 214.45 155.826v194.43c-177.188 -22.096 -326.23 -134.736 -399.426 -290.154zM644.556 156.672
c-40.39 -18.408 -85.272 -28.672 -132.556 -28.672s-92.166 10.264 -132.554 28.67l-114.292 -157.31c73.206 -40.366 157.336 -63.36 246.846 -63.36s173.64 22.994 246.848 63.36z" />
    <glyph glyph-name="spinner5" unicode="&#xe97e;" 
d="M512 960c-282.77 0 -512 -229.23 -512 -512s229.23 -512 512 -512c282.77 0 512 229.23 512 512c0 282.77 -229.23 512 -512 512zM512 704c141.384 0 256 -114.616 256 -256s-114.616 -256 -256 -256s-256 114.616 -256 256s114.616 256 256 256zM817.47 142.53
c-81.594 -81.594 -190.08 -126.53 -305.47 -126.53c-115.392 0 -223.876 44.936 -305.47 126.53c-81.594 81.594 -126.53 190.078 -126.53 305.47c0 115.39 44.936 223.876 126.53 305.47l67.882 -67.882v0c-131.006 -131.006 -131.006 -344.17 0 -475.176
c63.462 -63.462 147.838 -98.412 237.588 -98.412c89.748 0 174.124 34.95 237.588 98.412c131.006 131.006 131.006 344.168 0 475.176l67.882 67.882c81.594 -81.594 126.53 -190.08 126.53 -305.47c0 -115.392 -44.936 -223.876 -126.53 -305.47z" />
    <glyph glyph-name="spinner6" unicode="&#xe97f;" 
d="M384 832c0 70.692 57.308 128 128 128s128 -57.308 128 -128s-57.308 -128 -128 -128s-128 57.308 -128 128zM790.994 448v0c0 57.993 47.013 105.006 105.006 105.006s105.006 -47.013 105.006 -105.006v0c0 -57.993 -47.013 -105.006 -105.006 -105.006
s-105.006 47.013 -105.006 105.006zM688.424 176.47c0 52.526 42.58 95.106 95.106 95.106s95.106 -42.58 95.106 -95.106s-42.58 -95.106 -95.106 -95.106s-95.106 42.58 -95.106 95.106zM425.862 64c0 47.573 38.565 86.138 86.138 86.138s86.138 -38.565 86.138 -86.138
c0 -47.573 -38.565 -86.138 -86.138 -86.138s-86.138 38.565 -86.138 86.138zM162.454 176.47c0 43.088 34.93 78.018 78.018 78.018s78.018 -34.93 78.018 -78.018s-34.93 -78.018 -78.018 -78.018s-78.018 34.93 -78.018 78.018zM57.338 448
c0 39.026 31.636 70.662 70.662 70.662c39.026 0 70.662 -31.636 70.662 -70.662s-31.636 -70.662 -70.662 -70.662s-70.662 31.636 -70.662 70.662zM176.472 719.528v0c0 35.346 28.654 64 64 64c35.346 0 64 -28.654 64 -64v0c0 -35.346 -28.654 -64 -64 -64
s-64 28.654 -64 64zM899.464 719.528c0 -64.024 -51.906 -115.934 -115.936 -115.934c-64.024 0 -115.936 51.91 -115.936 115.934c0 64.032 51.912 115.934 115.936 115.934c64.03 0 115.936 -51.902 115.936 -115.934z" />
    <glyph glyph-name="spinner7" unicode="&#xe980;" 
d="M416 32c0 53.019 42.981 96 96 96s96 -42.981 96 -96c0 -53.019 -42.981 -96 -96 -96s-96 42.981 -96 96zM0 448c0 53.019 42.981 96 96 96c53.019 0 96 -42.981 96 -96s-42.981 -96 -96 -96s-96 42.981 -96 96zM832 448c0 53.019 42.981 96 96 96s96 -42.981 96 -96
s-42.981 -96 -96 -96s-96 42.981 -96 96zM121.844 742.156c0 53.019 42.981 96 96 96s96 -42.981 96 -96s-42.981 -96 -96 -96s-96 42.981 -96 96zM710.156 153.844c0 53.019 42.981 96 96 96s96 -42.981 96 -96s-42.981 -96 -96 -96s-96 42.981 -96 96zM121.844 153.844
c0 53.019 42.981 96 96 96s96 -42.981 96 -96s-42.981 -96 -96 -96s-96 42.981 -96 96zM710.156 742.156c0 53.019 42.981 96 96 96s96 -42.981 96 -96s-42.981 -96 -96 -96s-96 42.981 -96 96z" />
    <glyph glyph-name="spinner8" unicode="&#xe981;" 
d="M512 -64c-136.76 0 -265.334 53.258 -362.04 149.96c-96.702 96.706 -149.96 225.28 -149.96 362.04c0 96.838 27.182 191.134 78.606 272.692c50 79.296 120.664 143.372 204.356 185.3l43 -85.832c-68.038 -34.084 -125.492 -86.186 -166.15 -150.67
c-41.746 -66.208 -63.812 -142.798 -63.812 -221.49c0 -229.382 186.618 -416 416 -416c229.382 0 416 186.618 416 416c0 78.692 -22.066 155.282 -63.81 221.49c-40.66 64.484 -98.114 116.584 -166.15 150.67l43 85.832c83.692 -41.928 154.358 -106.004 204.356 -185.3
c51.422 -81.558 78.604 -175.854 78.604 -272.692c0 -136.76 -53.258 -265.334 -149.96 -362.04c-96.706 -96.702 -225.28 -149.96 -362.04 -149.96z" />
    <glyph glyph-name="spinner9" unicode="&#xe982;" 
d="M512 960c-278.748 0 -505.458 -222.762 -511.848 -499.974c5.92 241.864 189.832 435.974 415.848 435.974c229.75 0 416 -200.576 416 -448c0 -53.02 42.98 -96 96 -96s96 42.98 96 96c0 282.77 -229.23 512 -512 512zM512 -64
c278.748 0 505.458 222.762 511.848 499.974c-5.92 -241.864 -189.832 -435.974 -415.848 -435.974c-229.75 0 -416 200.576 -416 448c0 53.02 -42.98 96 -96 96s-96 -42.98 -96 -96c0 -282.77 229.23 -512 512 -512z" />
    <glyph glyph-name="spinner10" unicode="&#xe983;" 
d="M0.042 446.382l-0.022 -0.004s0.012 -0.09 0.028 -0.222c0.11 -3.878 0.55 -7.676 1.322 -11.352c0.204 -1.746 0.428 -3.66 0.674 -5.774c0.222 -1.886 0.46 -3.914 0.718 -6.078c0.374 -2.566 0.77 -5.292 1.19 -8.176c0.856 -5.746 1.8 -12.124 2.908 -18.958
c1.348 -6.446 2.804 -13.414 4.364 -20.864c0.71 -3.718 1.776 -7.504 2.786 -11.406c1.024 -3.89 2.078 -7.894 3.16 -12.004c0.566 -2.042 1.04 -4.132 1.708 -6.208c0.656 -2.074 1.32 -4.176 1.988 -6.3c1.348 -4.234 2.726 -8.566 4.136 -12.988
c0.352 -1.106 0.708 -2.21 1.064 -3.324c0.408 -1.102 0.814 -2.208 1.226 -3.316c0.826 -2.218 1.658 -4.458 2.502 -6.714c1.696 -4.496 3.422 -9.078 5.18 -13.742c1.968 -4.566 3.97 -9.214 6.004 -13.934c1.018 -2.348 2.044 -4.714 3.078 -7.098
c1.048 -2.376 2.27 -4.704 3.408 -7.074c2.322 -4.714 4.678 -9.496 7.062 -14.332c2.47 -4.786 5.208 -9.512 7.846 -14.328c1.336 -2.398 2.68 -4.808 4.028 -7.23c1.368 -2.41 2.902 -4.75 4.356 -7.14c2.95 -4.738 5.93 -9.524 8.934 -14.348
c12.64 -18.894 26.676 -37.566 42.21 -55.278c15.712 -17.578 32.726 -34.25 50.692 -49.602c18.18 -15.136 37.264 -28.902 56.726 -41.114c19.604 -12.036 39.644 -22.312 59.376 -31.144c5.004 -2.04 9.964 -4.062 14.878 -6.066c2.462 -0.972 4.868 -2.032 7.336 -2.918
c2.47 -0.868 4.93 -1.734 7.376 -2.594c4.898 -1.684 9.678 -3.468 14.484 -4.992c4.832 -1.43 9.604 -2.844 14.312 -4.242c2.356 -0.672 4.66 -1.426 7.004 -2.012c2.346 -0.574 4.676 -1.14 6.986 -1.704c4.606 -1.118 9.142 -2.214 13.604 -3.296
c4.5 -0.868 8.926 -1.722 13.27 -2.558c2.166 -0.41 4.31 -0.82 6.434 -1.222c1.062 -0.2 2.118 -0.398 3.166 -0.598c1.06 -0.148 2.118 -0.292 3.166 -0.442c4.192 -0.582 8.292 -1.152 12.3 -1.71c1.998 -0.274 3.972 -0.546 5.922 -0.816
c1.946 -0.286 3.904 -0.378 5.814 -0.57c3.822 -0.336 7.544 -0.664 11.164 -0.98c3.616 -0.304 7.104 -0.688 10.526 -0.738c0.23 -0.008 0.452 -0.016 0.682 -0.026c0.614 -34.812 29.008 -62.846 63.968 -62.846c0.542 0 1.08 0.028 1.62 0.042v-0.022
s0.09 0.012 0.224 0.028c3.878 0.11 7.674 0.55 11.35 1.322c1.748 0.204 3.662 0.426 5.776 0.672c1.884 0.222 3.912 0.462 6.076 0.718c2.566 0.376 5.292 0.772 8.176 1.192c5.746 0.856 12.124 1.8 18.958 2.908c6.446 1.348 13.414 2.804 20.864 4.362
c3.718 0.712 7.504 1.778 11.406 2.786c3.892 1.026 7.894 2.08 12.004 3.162c2.044 0.566 4.132 1.04 6.208 1.708c2.074 0.656 4.174 1.318 6.3 1.988c4.232 1.348 8.564 2.726 12.988 4.134c1.104 0.354 2.21 0.708 3.324 1.066c1.1 0.406 2.206 0.814 3.316 1.226
c2.216 0.824 4.456 1.658 6.714 2.5c4.496 1.698 9.078 3.424 13.74 5.182c4.568 1.968 9.216 3.97 13.936 6.004c2.348 1.018 4.714 2.044 7.098 3.078c2.376 1.048 4.702 2.27 7.074 3.408c4.714 2.322 9.494 4.678 14.33 7.062c4.786 2.47 9.512 5.208 14.328 7.846
c2.398 1.336 4.808 2.678 7.23 4.028c2.41 1.366 4.75 2.9 7.14 4.354c4.738 2.952 9.524 5.93 14.35 8.936c18.89 12.64 37.564 26.674 55.278 42.21c17.574 15.712 34.248 32.726 49.602 50.69c15.136 18.182 28.902 37.264 41.112 56.728
c12.036 19.602 22.314 39.644 31.142 59.376c2.042 5.002 4.062 9.964 6.068 14.878c0.974 2.462 2.032 4.868 2.918 7.334c0.87 2.472 1.732 4.932 2.592 7.376c1.686 4.898 3.468 9.678 4.994 14.484c1.432 4.832 2.846 9.604 4.24 14.31
c0.674 2.358 1.43 4.66 2.016 7.004c0.57 2.348 1.138 4.676 1.702 6.988c1.118 4.606 2.216 9.14 3.296 13.602c0.868 4.502 1.72 8.928 2.558 13.272c0.41 2.164 0.818 4.308 1.222 6.434c0.2 1.06 0.398 2.116 0.596 3.164c0.148 1.062 0.296 2.118 0.444 3.168
c0.582 4.19 1.152 8.292 1.708 12.3c0.278 1.996 0.55 3.97 0.82 5.922c0.284 1.946 0.376 3.902 0.568 5.812c0.336 3.822 0.664 7.546 0.98 11.164c0.304 3.616 0.686 7.106 0.738 10.528c0.02 0.534 0.04 1.044 0.058 1.574c35.224 0.146 63.732 28.738 63.732 63.992
c0 0.542 -0.028 1.08 -0.042 1.62h0.022s-0.012 0.09 -0.028 0.224c-0.11 3.878 -0.55 7.674 -1.322 11.35c-0.204 1.748 -0.428 3.662 -0.674 5.776c-0.222 1.886 -0.46 3.914 -0.718 6.076c-0.374 2.566 -0.77 5.294 -1.19 8.176c-0.856 5.746 -1.8 12.124 -2.908 18.958
c-1.348 6.444 -2.804 13.414 -4.364 20.862c-0.71 3.72 -1.776 7.506 -2.786 11.408c-1.024 3.892 -2.078 7.894 -3.16 12.002c-0.566 2.044 -1.04 4.134 -1.708 6.208c-0.656 2.076 -1.32 4.174 -1.988 6.3c-1.348 4.234 -2.726 8.566 -4.136 12.99
c-0.352 1.102 -0.708 2.21 -1.064 3.324c-0.408 1.1 -0.814 2.206 -1.226 3.316c-0.826 2.216 -1.658 4.454 -2.502 6.714c-1.696 4.498 -3.422 9.08 -5.18 13.74c-1.968 4.57 -3.97 9.216 -6.004 13.936c-1.02 2.348 -2.044 4.714 -3.078 7.098
c-1.048 2.376 -2.27 4.702 -3.408 7.076c-2.322 4.714 -4.678 9.494 -7.062 14.33c-2.47 4.786 -5.208 9.512 -7.846 14.328c-1.336 2.398 -2.68 4.808 -4.028 7.23c-1.368 2.41 -2.902 4.75 -4.356 7.14c-2.95 4.74 -5.93 9.524 -8.934 14.35
c-12.64 18.892 -26.676 37.564 -42.21 55.278c-15.712 17.576 -32.726 34.25 -50.692 49.602c-18.18 15.136 -37.264 28.902 -56.726 41.112c-19.604 12.036 -39.644 22.314 -59.376 31.142c-5.004 2.04 -9.964 4.062 -14.878 6.068c-2.462 0.974 -4.868 2.032 -7.336 2.918
c-2.47 0.87 -4.93 1.734 -7.376 2.592c-4.898 1.684 -9.678 3.468 -14.484 4.994c-4.832 1.432 -9.604 2.846 -14.312 4.242c-2.356 0.672 -4.66 1.428 -7.004 2.014c-2.346 0.572 -4.676 1.138 -6.986 1.702c-4.606 1.118 -9.142 2.216 -13.604 3.298
c-4.5 0.868 -8.926 1.72 -13.27 2.558c-2.166 0.412 -4.31 0.82 -6.434 1.222c-1.062 0.2 -2.118 0.398 -3.166 0.596c-1.06 0.148 -2.118 0.296 -3.166 0.442c-4.192 0.584 -8.292 1.154 -12.3 1.71c-1.998 0.276 -3.972 0.55 -5.922 0.82
c-1.946 0.284 -3.904 0.376 -5.814 0.57c-3.822 0.336 -7.544 0.664 -11.164 0.98c-3.616 0.304 -7.104 0.686 -10.526 0.738c-0.852 0.032 -1.674 0.062 -2.512 0.092c-0.65 34.78 -29.028 62.778 -63.966 62.778c-0.542 0 -1.08 -0.028 -1.62 -0.042l-0.002 0.022
s-0.09 -0.012 -0.222 -0.028c-3.878 -0.11 -7.676 -0.55 -11.352 -1.322c-1.748 -0.204 -3.662 -0.426 -5.776 -0.672c-1.884 -0.222 -3.912 -0.462 -6.076 -0.718c-2.566 -0.376 -5.292 -0.772 -8.176 -1.192c-5.746 -0.856 -12.124 -1.8 -18.958 -2.908
c-6.446 -1.348 -13.414 -2.804 -20.864 -4.362c-3.718 -0.712 -7.504 -1.778 -11.406 -2.786c-3.892 -1.026 -7.894 -2.08 -12.004 -3.162c-2.044 -0.566 -4.132 -1.04 -6.208 -1.708c-2.074 -0.656 -4.174 -1.318 -6.3 -1.988c-4.232 -1.348 -8.564 -2.726 -12.988 -4.134
c-1.104 -0.354 -2.21 -0.708 -3.324 -1.066c-1.1 -0.406 -2.206 -0.814 -3.316 -1.226c-2.216 -0.824 -4.456 -1.658 -6.714 -2.5c-4.496 -1.698 -9.078 -3.424 -13.74 -5.182c-4.568 -1.968 -9.216 -3.97 -13.936 -6.004c-2.348 -1.018 -4.714 -2.044 -7.098 -3.078
c-2.376 -1.048 -4.702 -2.27 -7.074 -3.408c-4.714 -2.322 -9.494 -4.678 -14.33 -7.062c-4.786 -2.47 -9.512 -5.208 -14.328 -7.846c-2.398 -1.336 -4.808 -2.678 -7.23 -4.028c-2.41 -1.366 -4.75 -2.9 -7.14 -4.354c-4.738 -2.952 -9.524 -5.93 -14.35 -8.936
c-18.89 -12.64 -37.564 -26.674 -55.278 -42.21c-17.574 -15.712 -34.248 -32.726 -49.602 -50.69c-15.136 -18.182 -28.902 -37.264 -41.112 -56.728c-12.036 -19.602 -22.314 -39.644 -31.142 -59.376c-2.042 -5.002 -4.062 -9.964 -6.068 -14.878
c-0.974 -2.462 -2.032 -4.868 -2.918 -7.334c-0.87 -2.472 -1.732 -4.932 -2.592 -7.376c-1.686 -4.898 -3.468 -9.678 -4.994 -14.484c-1.432 -4.832 -2.846 -9.604 -4.24 -14.31c-0.674 -2.358 -1.43 -4.66 -2.016 -7.004c-0.57 -2.348 -1.138 -4.676 -1.702 -6.988
c-1.118 -4.606 -2.216 -9.14 -3.296 -13.602c-0.868 -4.502 -1.72 -8.928 -2.558 -13.272c-0.41 -2.164 -0.818 -4.308 -1.222 -6.434c-0.2 -1.06 -0.398 -2.116 -0.596 -3.164c-0.148 -1.062 -0.296 -2.118 -0.444 -3.168c-0.582 -4.19 -1.152 -8.292 -1.708 -12.3
c-0.278 -1.996 -0.55 -3.97 -0.82 -5.922c-0.284 -1.946 -0.376 -3.902 -0.568 -5.812c-0.336 -3.822 -0.664 -7.546 -0.98 -11.164c-0.304 -3.616 -0.686 -7.106 -0.738 -10.528c-0.02 -0.548 -0.04 -1.076 -0.058 -1.62c-34.376 -1.112 -61.902 -29.304 -61.902 -63.946
c0 -0.542 0.028 -1.078 0.042 -1.618zM73.518 511.294c0.042 0.196 0.086 0.384 0.128 0.58c0.644 3.248 1.632 6.542 2.556 9.942c0.934 3.388 1.894 6.876 2.88 10.454c0.516 1.78 0.934 3.602 1.546 5.406c0.596 1.802 1.202 3.628 1.81 5.476
c1.218 3.682 2.464 7.45 3.736 11.294c0.316 0.958 0.634 1.924 0.956 2.892c0.37 0.954 0.74 1.914 1.114 2.876c0.746 1.924 1.5 3.868 2.26 5.83c1.52 3.904 3.07 7.882 4.646 11.93c1.768 3.96 3.566 7.99 5.392 12.08c0.908 2.038 1.824 4.09 2.746 6.156
c0.932 2.06 2.036 4.072 3.052 6.126c2.07 4.084 4.17 8.222 6.294 12.412c2.202 4.142 4.654 8.224 6.998 12.392c1.184 2.074 2.374 4.16 3.57 6.256c1.21 2.086 2.586 4.102 3.876 6.166c2.616 4.098 5.256 8.232 7.918 12.402c11.234 16.298 23.632 32.398 37.33 47.638
c13.874 15.104 28.842 29.404 44.598 42.548c15.974 12.928 32.686 24.65 49.676 35.022c17.13 10.194 34.6 18.838 51.734 26.258c4.35 1.7 8.662 3.382 12.934 5.05c2.136 0.812 4.216 1.71 6.36 2.444c2.146 0.714 4.28 1.428 6.404 2.136
c4.25 1.386 8.382 2.888 12.548 4.142c4.184 1.174 8.314 2.332 12.392 3.474c2.038 0.55 4.026 1.19 6.054 1.662c2.03 0.458 4.044 0.914 6.044 1.368c3.978 0.91 7.896 1.806 11.748 2.688c3.888 0.686 7.71 1.36 11.462 2.022c1.868 0.33 3.716 0.658 5.546 0.98
c0.914 0.162 1.824 0.324 2.728 0.484c0.916 0.112 1.828 0.222 2.734 0.332c3.612 0.448 7.148 0.882 10.604 1.31c1.72 0.216 3.422 0.432 5.102 0.644c1.674 0.226 3.364 0.266 5.01 0.408c3.292 0.238 6.498 0.472 9.616 0.7c3.11 0.218 6.11 0.524 9.058 0.508
c5.848 0.132 11.32 0.256 16.38 0.372c4.664 -0.168 8.948 -0.324 12.818 -0.462c1.914 -0.054 3.726 -0.108 5.432 -0.156c2.122 -0.134 4.108 -0.26 5.958 -0.378c2.13 -0.138 4.06 -0.266 5.82 -0.38c3.256 -0.51 6.592 -0.782 9.99 -0.782
c0.466 0 0.93 0.026 1.396 0.036c0.132 -0.008 0.224 -0.014 0.224 -0.014v0.02c31.14 0.778 56.75 23.784 61.556 53.754c0.542 -0.12 1.064 -0.236 1.612 -0.356c3.246 -0.644 6.542 -1.632 9.942 -2.556c3.386 -0.934 6.876 -1.894 10.454 -2.88
c1.778 -0.516 3.602 -0.934 5.404 -1.546c1.802 -0.596 3.63 -1.202 5.478 -1.812c3.68 -1.218 7.448 -2.464 11.292 -3.736c0.96 -0.316 1.924 -0.634 2.892 -0.956c0.956 -0.37 1.914 -0.74 2.876 -1.112c1.926 -0.746 3.868 -1.5 5.83 -2.26
c3.904 -1.52 7.884 -3.07 11.932 -4.646c3.96 -1.768 7.988 -3.566 12.08 -5.392c2.038 -0.908 4.088 -1.824 6.156 -2.746c2.06 -0.932 4.072 -2.036 6.126 -3.054c4.082 -2.07 8.222 -4.17 12.41 -6.294c4.144 -2.202 8.226 -4.654 12.394 -6.998
c2.074 -1.184 4.16 -2.374 6.256 -3.572c2.086 -1.21 4.102 -2.586 6.166 -3.876c4.098 -2.616 8.23 -5.256 12.402 -7.918c16.296 -11.234 32.398 -23.632 47.636 -37.33c15.104 -13.874 29.406 -28.842 42.55 -44.598c12.928 -15.974 24.648 -32.686 35.02 -49.676
c10.196 -17.13 18.84 -34.6 26.26 -51.736c1.698 -4.348 3.382 -8.662 5.05 -12.932c0.812 -2.136 1.71 -4.216 2.444 -6.36c0.714 -2.146 1.428 -4.28 2.136 -6.404c1.386 -4.25 2.888 -8.384 4.142 -12.548c1.174 -4.184 2.33 -8.316 3.474 -12.392
c0.55 -2.038 1.19 -4.026 1.66 -6.054c0.46 -2.03 0.916 -4.046 1.368 -6.046c0.91 -3.978 1.808 -7.896 2.688 -11.748c0.688 -3.888 1.362 -7.71 2.024 -11.462c0.33 -1.868 0.656 -3.716 0.98 -5.548c0.162 -0.914 0.324 -1.824 0.484 -2.728
c0.11 -0.916 0.222 -1.828 0.332 -2.734c0.446 -3.612 0.882 -7.148 1.31 -10.604c0.216 -1.72 0.432 -3.42 0.642 -5.1c0.226 -1.674 0.268 -3.364 0.41 -5.01c0.238 -3.292 0.472 -6.498 0.7 -9.616c0.218 -3.11 0.524 -6.11 0.508 -9.058
c0.132 -5.848 0.256 -11.32 0.372 -16.38c-0.168 -4.664 -0.324 -8.948 -0.462 -12.818c-0.054 -1.914 -0.108 -3.726 -0.156 -5.432c-0.134 -2.122 -0.26 -4.108 -0.378 -5.958c-0.138 -2.13 -0.266 -4.06 -0.38 -5.82c-0.498 -3.256 -0.768 -6.592 -0.768 -9.99
c0 -0.468 0.026 -0.93 0.036 -1.396c-0.008 -0.132 -0.016 -0.224 -0.016 -0.224h0.022c0.768 -30.766 23.236 -56.128 52.682 -61.37c-0.066 -0.296 -0.13 -0.584 -0.198 -0.884c-0.644 -3.248 -1.632 -6.542 -2.556 -9.942c-0.934 -3.388 -1.894 -6.876 -2.88 -10.454
c-0.516 -1.78 -0.934 -3.602 -1.546 -5.406c-0.596 -1.802 -1.202 -3.628 -1.81 -5.476c-1.218 -3.682 -2.464 -7.45 -3.736 -11.294c-0.316 -0.958 -0.634 -1.924 -0.956 -2.892c-0.37 -0.954 -0.74 -1.914 -1.114 -2.876c-0.746 -1.924 -1.5 -3.868 -2.26 -5.83
c-1.52 -3.904 -3.07 -7.882 -4.646 -11.93c-1.768 -3.96 -3.566 -7.99 -5.392 -12.08c-0.908 -2.038 -1.824 -4.09 -2.746 -6.156c-0.932 -2.06 -2.036 -4.072 -3.052 -6.126c-2.07 -4.084 -4.17 -8.222 -6.294 -12.412c-2.202 -4.142 -4.654 -8.224 -6.998 -12.392
c-1.184 -2.074 -2.374 -4.16 -3.57 -6.256c-1.21 -2.086 -2.586 -4.102 -3.876 -6.166c-2.616 -4.098 -5.256 -8.232 -7.918 -12.402c-11.234 -16.298 -23.632 -32.398 -37.33 -47.638c-13.874 -15.104 -28.842 -29.404 -44.598 -42.548
c-15.974 -12.928 -32.686 -24.65 -49.676 -35.022c-17.13 -10.194 -34.6 -18.838 -51.734 -26.258c-4.35 -1.7 -8.662 -3.382 -12.934 -5.05c-2.136 -0.812 -4.216 -1.71 -6.36 -2.444c-2.146 -0.714 -4.28 -1.428 -6.404 -2.136c-4.25 -1.386 -8.382 -2.888 -12.548 -4.142
c-4.184 -1.174 -8.314 -2.332 -12.392 -3.474c-2.038 -0.55 -4.026 -1.19 -6.054 -1.662c-2.03 -0.458 -4.044 -0.914 -6.044 -1.368c-3.978 -0.91 -7.896 -1.806 -11.748 -2.688c-3.888 -0.686 -7.71 -1.36 -11.462 -2.022c-1.868 -0.33 -3.716 -0.658 -5.546 -0.98
c-0.914 -0.162 -1.824 -0.324 -2.728 -0.484c-0.916 -0.112 -1.828 -0.222 -2.734 -0.332c-3.612 -0.448 -7.148 -0.882 -10.604 -1.31c-1.72 -0.216 -3.422 -0.432 -5.102 -0.644c-1.674 -0.226 -3.364 -0.266 -5.01 -0.408c-3.292 -0.238 -6.498 -0.472 -9.616 -0.7
c-3.11 -0.218 -6.11 -0.524 -9.058 -0.508c-5.848 -0.132 -11.32 -0.256 -16.38 -0.372c-4.664 0.168 -8.948 0.324 -12.818 0.462c-1.914 0.054 -3.726 0.108 -5.432 0.156c-2.122 0.134 -4.108 0.26 -5.958 0.378c-2.13 0.138 -4.06 0.266 -5.82 0.38
c-3.256 0.51 -6.592 0.782 -9.99 0.782c-0.466 0 -0.93 -0.026 -1.396 -0.036c-0.132 0.008 -0.224 0.014 -0.224 0.014v-0.02c-31.004 -0.774 -56.524 -23.586 -61.488 -53.364c-3.2 0.64 -6.446 1.61 -9.792 2.522c-3.386 0.934 -6.876 1.894 -10.454 2.878
c-1.778 0.516 -3.602 0.938 -5.404 1.546c-1.802 0.598 -3.63 1.204 -5.478 1.812c-3.68 1.218 -7.448 2.464 -11.292 3.738c-0.96 0.316 -1.924 0.632 -2.892 0.954c-0.956 0.372 -1.914 0.742 -2.876 1.114c-1.926 0.746 -3.868 1.5 -5.83 2.258
c-3.904 1.524 -7.884 3.07 -11.932 4.648c-3.96 1.77 -7.988 3.566 -12.08 5.39c-2.038 0.91 -4.088 1.824 -6.156 2.746c-2.06 0.934 -4.072 2.036 -6.126 3.054c-4.082 2.07 -8.222 4.172 -12.41 6.296c-4.144 2.2 -8.226 4.652 -12.394 6.996
c-2.074 1.184 -4.16 2.376 -6.256 3.57c-2.086 1.21 -4.102 2.586 -6.166 3.878c-4.098 2.614 -8.23 5.254 -12.402 7.918c-16.296 11.23 -32.398 23.632 -47.636 37.328c-15.104 13.876 -29.406 28.84 -42.55 44.598c-12.928 15.972 -24.648 32.684 -35.02 49.676
c-10.196 17.128 -18.84 34.602 -26.26 51.734c-1.698 4.352 -3.382 8.664 -5.05 12.934c-0.812 2.136 -1.71 4.218 -2.444 6.36c-0.714 2.148 -1.428 4.282 -2.136 6.406c-1.386 4.25 -2.888 8.382 -4.142 12.546c-1.174 4.184 -2.33 8.316 -3.474 12.394
c-0.55 2.036 -1.19 4.024 -1.66 6.054c-0.46 2.028 -0.916 4.042 -1.368 6.042c-0.91 3.98 -1.808 7.898 -2.688 11.75c-0.688 3.886 -1.362 7.71 -2.024 11.46c-0.33 1.868 -0.656 3.718 -0.98 5.546c-0.162 0.914 -0.324 1.824 -0.484 2.73
c-0.11 0.914 -0.222 1.828 -0.332 2.734c-0.446 3.61 -0.882 7.148 -1.31 10.602c-0.216 1.722 -0.432 3.422 -0.642 5.102c-0.226 1.676 -0.268 3.364 -0.41 5.012c-0.238 3.29 -0.472 6.496 -0.7 9.614c-0.218 3.11 -0.524 6.11 -0.508 9.058
c-0.132 5.848 -0.256 11.32 -0.372 16.382c0.168 4.664 0.324 8.946 0.462 12.816c0.054 1.914 0.108 3.726 0.156 5.434c0.134 2.122 0.26 4.106 0.378 5.958c0.138 2.128 0.266 4.058 0.38 5.82c0.496 3.26 0.766 6.596 0.766 9.994c0 0.466 -0.026 0.93 -0.036 1.396
c0.008 0.132 0.016 0.224 0.016 0.224h-0.022c-0.78 31.38 -24.134 57.154 -54.44 61.674z" />
    <glyph glyph-name="spinner11" unicode="&#xe984;" 
d="M1024 576h-384l143.53 143.53c-72.53 72.526 -168.96 112.47 -271.53 112.47s-199 -39.944 -271.53 -112.47c-72.526 -72.53 -112.47 -168.96 -112.47 -271.53s39.944 -199 112.47 -271.53c72.53 -72.526 168.96 -112.47 271.53 -112.47s199 39.944 271.528 112.472
c6.056 6.054 11.86 12.292 17.456 18.668l96.32 -84.282c-93.846 -107.166 -231.664 -174.858 -385.304 -174.858c-282.77 0 -512 229.23 -512 512s229.23 512 512 512c141.386 0 269.368 -57.326 362.016 -149.984l149.984 149.984v-384z" />
    <glyph glyph-name="binoculars" unicode="&#xe985;" 
d="M64 960h384v-64h-384v64zM576 960h384v-64h-384v64zM952 640h-56v256h-256v-256h-256v256h-256v-256h-56c-39.6 0 -72 -32.4 -72 -72v-560c0 -39.6 32.4 -72 72 -72h304c39.6 0 72 32.4 72 72v376h128v-376c0 -39.6 32.4 -72 72 -72h304c39.6 0 72 32.4 72 72v560
c0 39.6 -32.4 72 -72 72zM348 0h-248c-19.8 0 -36 14.4 -36 32c0 17.6 16.2 32 36 32h248c19.8 0 36 -14.4 36 -32s-16.2 -32 -36 -32zM544 448h-64c-17.6 0 -32 14.4 -32 32s14.4 32 32 32h64c17.6 0 32 -14.4 32 -32s-14.4 -32 -32 -32zM924 0h-248
c-19.8 0 -36 14.4 -36 32c0 17.6 16.2 32 36 32h248c19.8 0 36 -14.4 36 -32s-16.2 -32 -36 -32z" />
    <glyph glyph-name="search" unicode="&#xe986;" 
d="M992.262 88.604l-242.552 206.294c-25.074 22.566 -51.89 32.926 -73.552 31.926c57.256 67.068 91.842 154.078 91.842 249.176c0 212.078 -171.922 384 -384 384c-212.076 0 -384 -171.922 -384 -384s171.922 -384 384 -384c95.098 0 182.108 34.586 249.176 91.844
c-1 -21.662 9.36 -48.478 31.926 -73.552l206.294 -242.552c35.322 -39.246 93.022 -42.554 128.22 -7.356c35.198 35.198 31.892 92.898 -7.354 128.22zM384 320c-141.384 0 -256 114.616 -256 256s114.616 256 256 256s256 -114.616 256 -256s-114.614 -256 -256 -256z
" />
    <glyph glyph-name="zoom-in" unicode="&#xe987;" 
d="M992.262 88.604l-242.552 206.294c-25.074 22.566 -51.89 32.926 -73.552 31.926c57.256 67.068 91.842 154.078 91.842 249.176c0 212.078 -171.922 384 -384 384c-212.076 0 -384 -171.922 -384 -384s171.922 -384 384 -384c95.098 0 182.108 34.586 249.176 91.844
c-1 -21.662 9.36 -48.478 31.926 -73.552l206.294 -242.552c35.322 -39.246 93.022 -42.554 128.22 -7.356c35.198 35.198 31.892 92.898 -7.354 128.22zM384 320c-141.384 0 -256 114.616 -256 256s114.616 256 256 256s256 -114.616 256 -256s-114.614 -256 -256 -256z
M448 768h-128v-128h-128v-128h128v-128h128v128h128v128h-128v128z" />
    <glyph glyph-name="zoom-out" unicode="&#xe988;" 
d="M992.262 88.604l-242.552 206.294c-25.074 22.566 -51.89 32.926 -73.552 31.926c57.256 67.068 91.842 154.078 91.842 249.176c0 212.078 -171.922 384 -384 384c-212.076 0 -384 -171.922 -384 -384s171.922 -384 384 -384c95.098 0 182.108 34.586 249.176 91.844
c-1 -21.662 9.36 -48.478 31.926 -73.552l206.294 -242.552c35.322 -39.246 93.022 -42.554 128.22 -7.356c35.198 35.198 31.892 92.898 -7.354 128.22zM384 320c-141.384 0 -256 114.616 -256 256s114.616 256 256 256s256 -114.616 256 -256s-114.614 -256 -256 -256z
M192 640h384v-128h-384v128z" />
    <glyph glyph-name="enlarge" unicode="&#xe989;" 
d="M1024 960h-416l160 -160l-192 -192l96 -96l192 192l160 -160v416zM1024 -64v416l-160 -160l-192 192l-96 -96l192 -192l-160 -160h416zM0 -64h416l-160 160l192 192l-96 96l-192 -192l-160 160v-416zM0 960v-416l160 160l192 -192l96 96l-192 192l160 160h-416z" />
    <glyph glyph-name="shrink" unicode="&#xe98a;" 
d="M576 512h416l-160 160l192 192l-96 96l-192 -192l-160 160v-416zM576 384v-416l160 160l192 -192l96 96l-192 192l160 160h-416zM448 384.004h-416l160 -160l-192 -192l96 -96l192 192l160 -160v416zM448 512v416l-160 -160l-192 192l-96 -96l192 -192l-160 -160h416z
" />
    <glyph glyph-name="enlarge2" unicode="&#xe98b;" 
d="M1024 960v-416l-160 160l-192 -192l-96 96l192 192l-160 160h416zM448 288l-192 -192l160 -160h-416v416l160 -160l192 192z" />
    <glyph glyph-name="shrink2" unicode="&#xe98c;" 
d="M448 384v-416l-160 160l-192 -192l-96 96l192 192l-160 160h416zM1024 864l-192 -192l160 -160h-416v416l160 -160l192 192z" />
    <glyph glyph-name="key" unicode="&#xe98d;" 
d="M704 960c-176.73 0 -320 -143.268 -320 -320c0 -20.026 1.858 -39.616 5.376 -58.624l-389.376 -389.376v-192c0 -35.346 28.654 -64 64 -64h64v64h128v128h128v128h128l83.042 83.042c34.01 -12.316 70.696 -19.042 108.958 -19.042c176.73 0 320 143.268 320 320
s-143.27 320 -320 320zM799.874 639.874c-53.02 0 -96 42.98 -96 96s42.98 96 96 96s96 -42.98 96 -96s-42.98 -96 -96 -96z" />
    <glyph glyph-name="key2" unicode="&#xe98e;" 
d="M1002.13 645.758l-101.106 101.104c-24.792 24.794 -65.37 65.368 -90.162 90.164l-101.106 101.104c-24.792 24.794 -68.954 29.166 -98.13 9.716l-276.438 -184.292c-29.176 -19.452 -40.218 -61.028 -24.536 -92.39l70.486 -140.974
c2.154 -4.306 4.646 -8.896 7.39 -13.66l-356.53 -356.53l-32 -224h192v64h128v128h128v128h128v71.186c6.396 -3.812 12.534 -7.216 18.192 -10.044l140.97 -70.488c31.366 -15.682 72.94 -4.638 92.39 24.538l184.294 276.44c19.454 29.172 15.078 73.33 -9.714 98.126z
M150.628 105.374l-45.254 45.254l311.572 311.57l45.254 -45.254zM917.02 536.236l-45.256 -45.256c-12.446 -12.444 -32.808 -12.444 -45.254 0l-271.53 271.53c-12.446 12.444 -12.446 32.81 0 45.254l45.256 45.256c12.446 12.444 32.808 12.444 45.254 0l271.53 -271.53
c12.446 -12.444 12.446 -32.81 0 -45.254z" />
    <glyph glyph-name="lock" unicode="&#xe98f;" 
d="M592 512h-16v192c0 105.87 -86.13 192 -192 192h-128c-105.87 0 -192 -86.13 -192 -192v-192h-16c-26.4 0 -48 -21.6 -48 -48v-480c0 -26.4 21.6 -48 48 -48h544c26.4 0 48 21.6 48 48v480c0 26.4 -21.6 48 -48 48zM192 704c0 35.29 28.71 64 64 64h128
c35.29 0 64 -28.71 64 -64v-192h-256v192z" />
    <glyph glyph-name="unlocked" unicode="&#xe990;" 
d="M768 896c105.87 0 192 -86.13 192 -192v-192h-128v192c0 35.29 -28.71 64 -64 64h-128c-35.29 0 -64 -28.71 -64 -64v-192h16c26.4 0 48 -21.6 48 -48v-480c0 -26.4 -21.6 -48 -48 -48h-544c-26.4 0 -48 21.6 -48 48v480c0 26.4 21.6 48 48 48h400v192
c0 105.87 86.13 192 192 192h128z" />
    <glyph glyph-name="wrench" unicode="&#xe991;" 
d="M1002.93 142.124l-460.552 394.76c21.448 40.298 33.618 86.282 33.618 135.116c0 159.058 -128.942 288 -288 288c-29.094 0 -57.172 -4.332 -83.646 -12.354l166.39 -166.39c24.89 -24.89 24.89 -65.62 0 -90.51l-101.49 -101.49c-24.89 -24.89 -65.62 -24.89 -90.51 0
l-166.39 166.39c-8.022 -26.474 -12.354 -54.552 -12.354 -83.646c0 -159.058 128.942 -288 288 -288c48.834 0 94.818 12.17 135.116 33.62l394.76 -460.552c22.908 -26.724 62.016 -28.226 86.904 -3.338l101.492 101.492c24.888 24.888 23.386 63.994 -3.338 86.902z" />
    <glyph glyph-name="equalizer" unicode="&#xe992;" 
d="M448 832v16c0 26.4 -21.6 48 -48 48h-160c-26.4 0 -48 -21.6 -48 -48v-16h-192v-128h192v-16c0 -26.4 21.6 -48 48 -48h160c26.4 0 48 21.6 48 48v16h576v128h-576zM256 704v128h128v-128h-128zM832 528c0 26.4 -21.6 48 -48 48h-160c-26.4 0 -48 -21.6 -48 -48v-16h-576
v-128h576v-16c0 -26.4 21.6 -48 48 -48h160c26.4 0 48 21.6 48 48v16h192v128h-192v16zM640 384v128h128v-128h-128zM448 208c0 26.4 -21.6 48 -48 48h-160c-26.4 0 -48 -21.6 -48 -48v-16h-192v-128h192v-16c0 -26.4 21.6 -48 48 -48h160c26.4 0 48 21.6 48 48v16h576v128
h-576v16zM256 64v128h128v-128h-128z" />
    <glyph glyph-name="equalizer2" unicode="&#xe993;" 
d="M896 512h16c26.4 0 48 21.6 48 48v160c0 26.4 -21.6 48 -48 48h-16v192h-128v-192h-16c-26.4 0 -48 -21.6 -48 -48v-160c0 -26.4 21.6 -48 48 -48h16v-576h128v576zM768 704h128v-128h-128v128zM592 128c26.4 0 48 21.6 48 48v160c0 26.4 -21.6 48 -48 48h-16v576h-128
v-576h-16c-26.4 0 -48 -21.6 -48 -48v-160c0 -26.4 21.6 -48 48 -48h16v-192h128v192h16zM448 320h128v-128h-128v128zM272 512c26.4 0 48 21.6 48 48v160c0 26.4 -21.6 48 -48 48h-16v192h-128v-192h-16c-26.4 0 -48 -21.6 -48 -48v-160c0 -26.4 21.6 -48 48 -48h16v-576
h128v576h16zM128 704h128v-128h-128v128z" />
    <glyph glyph-name="cog" unicode="&#xe994;" 
d="M933.79 349.75c-53.726 93.054 -21.416 212.304 72.152 266.488l-100.626 174.292c-28.75 -16.854 -62.176 -26.518 -97.846 -26.518c-107.536 0 -194.708 87.746 -194.708 195.99h-201.258c0.266 -33.41 -8.074 -67.282 -25.958 -98.252
c-53.724 -93.056 -173.156 -124.702 -266.862 -70.758l-100.624 -174.292c28.97 -16.472 54.05 -40.588 71.886 -71.478c53.638 -92.908 21.512 -211.92 -71.708 -266.224l100.626 -174.292c28.65 16.696 61.916 26.254 97.4 26.254
c107.196 0 194.144 -87.192 194.7 -194.958h201.254c-0.086 33.074 8.272 66.57 25.966 97.218c53.636 92.906 172.776 124.594 266.414 71.012l100.626 174.29c-28.78 16.466 -53.692 40.498 -71.434 71.228zM512 240.668c-114.508 0 -207.336 92.824 -207.336 207.334
c0 114.508 92.826 207.334 207.336 207.334c114.508 0 207.332 -92.826 207.332 -207.334c-0.002 -114.51 -92.824 -207.334 -207.332 -207.334z" />
    </font>
</defs>
</svg>
